<mxfile host="app.diagrams.net" modified="2021-12-15T08:47:47.877Z" agent="5.0 (Windows NT 10.0; Win64; x64) AppleWebKit/537.36 (KHTML, like Gecko) Chrome/96.0.4664.110 Safari/537.36" etag="so-pmx-IpY3Wmlz2TswC" version="15.9.6" type="github">
  <diagram id="eaw8fCaroSGua-FuSO_3" name="Page-1">
    <mxGraphModel dx="1025" dy="599" grid="1" gridSize="10" guides="1" tooltips="1" connect="1" arrows="1" fold="1" page="1" pageScale="1" pageWidth="827" pageHeight="1169" background="none" math="0" shadow="0">
      <root>
        <mxCell id="0" />
        <mxCell id="1" parent="0" />
        <mxCell id="3" value="Anonymous user" style="shape=umlActor;verticalLabelPosition=bottom;verticalAlign=top;html=1;fillColor=none;" parent="1" vertex="1">
          <mxGeometry x="40" y="290" width="30" height="60" as="geometry" />
        </mxCell>
        <mxCell id="15" value="" style="group;strokeColor=none;" parent="1" vertex="1" connectable="0">
          <mxGeometry x="160" y="160" width="280" height="270" as="geometry" />
        </mxCell>
        <mxCell id="7" value="" style="shape=folder;fontStyle=1;spacingTop=10;tabWidth=170;tabHeight=30;tabPosition=left;html=1;fillColor=#333333;" parent="15" vertex="1">
          <mxGeometry x="0.00015789464450591224" width="269.9998421053555" height="270" as="geometry" />
        </mxCell>
        <mxCell id="9" value="Scan barcode" style="ellipse;whiteSpace=wrap;html=1;fillColor=#60a917;fontColor=#ffffff;strokeColor=#FFFFFF;" parent="15" vertex="1">
          <mxGeometry x="140.00472169899317" y="112.00625000000001" width="120" height="70" as="geometry" />
        </mxCell>
        <mxCell id="10" value="Show nutritional values" style="ellipse;whiteSpace=wrap;html=1;fillColor=#60a917;fontColor=#ffffff;strokeColor=#FFFFFF;" parent="15" vertex="1">
          <mxGeometry x="5.894721698993159" y="112.00125" width="120" height="70" as="geometry" />
        </mxCell>
        <mxCell id="8" value="Barcode scanning in appÂ " style="text;align=left;fontStyle=1;verticalAlign=middle;spacingLeft=3;spacingRight=3;strokeColor=none;rotatable=0;points=[[0,0.5],[1,0.5]];portConstraint=eastwest;fontColor=#3399FF;" parent="15" vertex="1">
          <mxGeometry width="170" height="30" as="geometry" />
        </mxCell>
        <mxCell id="36" style="edgeStyle=orthogonalEdgeStyle;rounded=0;orthogonalLoop=1;jettySize=auto;html=1;exitX=0.5;exitY=1;exitDx=0;exitDy=0;" parent="15" source="9" target="9" edge="1">
          <mxGeometry relative="1" as="geometry" />
        </mxCell>
        <mxCell id="42" value="Show ingredients" style="ellipse;whiteSpace=wrap;html=1;fillColor=#60a917;fontColor=#ffffff;strokeColor=#FFFFFF;" parent="15" vertex="1">
          <mxGeometry x="140" y="35" width="120" height="70" as="geometry" />
        </mxCell>
        <mxCell id="46" value="&lt;font color=&quot;#ffffff&quot;&gt;Show climate impact&amp;nbsp;&lt;br&gt;score&lt;/font&gt;" style="ellipse;whiteSpace=wrap;html=1;fillColor=#e51400;strokeColor=#FFFFFF;fontColor=#ffffff;" parent="15" vertex="1">
          <mxGeometry x="5.889999999999986" y="190" width="120" height="70" as="geometry" />
        </mxCell>
        <mxCell id="bYY5xVJ-usINXhbI3OhP-92" value="Search products by search bar" style="ellipse;whiteSpace=wrap;html=1;fillColor=#60a917;fontColor=#ffffff;strokeColor=#FFFFFF;" parent="15" vertex="1">
          <mxGeometry x="5.889999999999986" y="35" width="120" height="70" as="geometry" />
        </mxCell>
        <mxCell id="18" value="" style="group;rotation=0;" parent="1" vertex="1" connectable="0">
          <mxGeometry x="160" y="480" width="1040" height="230" as="geometry" />
        </mxCell>
        <mxCell id="16" value="" style="shape=folder;fontStyle=1;spacingTop=10;tabWidth=210;tabHeight=20;tabPosition=left;html=1;rotation=0;fillColor=#333333;" parent="18" vertex="1">
          <mxGeometry width="270" height="230" as="geometry" />
        </mxCell>
        <mxCell id="17" value="Community feature" style="text;align=left;fontStyle=1;verticalAlign=middle;spacingLeft=3;spacingRight=3;strokeColor=none;rotatable=0;points=[[0,0.5],[1,0.5]];portConstraint=eastwest;rotation=0;fontColor=#E3C800;" parent="18" vertex="1">
          <mxGeometry width="210" height="20" as="geometry" />
        </mxCell>
        <mxCell id="20" value="&lt;font color=&quot;#ffffff&quot;&gt;Registration &amp;amp; Login&lt;/font&gt;" style="ellipse;whiteSpace=wrap;html=1;rotation=0;fillColor=#e51400;strokeColor=#FFFFFF;fontColor=#ffffff;" parent="18" vertex="1">
          <mxGeometry x="10" y="40" width="120" height="70" as="geometry" />
        </mxCell>
        <mxCell id="21" value="&lt;font color=&quot;#ffffff&quot;&gt;Write &amp;amp; show comments&lt;/font&gt;" style="ellipse;whiteSpace=wrap;html=1;rotation=0;fillColor=#e51400;strokeColor=#FFFFFF;fontColor=#ffffff;" parent="18" vertex="1">
          <mxGeometry x="10" y="135" width="120" height="70" as="geometry" />
        </mxCell>
        <mxCell id="22" value="&lt;font color=&quot;#ffffff&quot;&gt;Submit &amp;amp; show ratings&lt;/font&gt;" style="ellipse;whiteSpace=wrap;html=1;rotation=0;fillColor=#e51400;strokeColor=#FFFFFF;fontColor=#ffffff;" parent="18" vertex="1">
          <mxGeometry x="140" y="40" width="120" height="70" as="geometry" />
        </mxCell>
        <mxCell id="49" value="&lt;font color=&quot;#ffffff&quot;&gt;Show purchase validation for comment/rating&lt;/font&gt;" style="ellipse;whiteSpace=wrap;html=1;fillColor=#2E2e2e;strokeColor=#FFFFFF;" parent="18" vertex="1">
          <mxGeometry x="140" y="135" width="120" height="70" as="geometry" />
        </mxCell>
        <mxCell id="qtvomUqqMElk3kE5GC_b-90" value="" style="shape=image;verticalLabelPosition=bottom;labelBackgroundColor=#ffffff;verticalAlign=top;aspect=fixed;imageAspect=0;image=data:image/png,iVBORw0KGgoAAAANSUhEUgAABdwAAAF0CAYAAAA5Nfv0AAAAIGNIUk0AAHomAACAhAAA+gAAAIDoAAB1MAAA6mAAADqYAAAXcJy6UTwAAAAEZ0FNQQAAsY58+1GTAAAAAXNSR0IArs4c6QAAAAZiS0dEAP8A/wD/oL2nkwAAAAlwSFlzAAAOxAAADsQBlSsOGwAAIABJREFUeNrs3Q9cTPn+P3Bbk0aNmjLVxLSGzcoK2c3Kysr6U/60abGycmWXK5f9yl3uctm79st+2R+7WFxZWVlZWdmkqPyrVlYIrUIYjNukoVFTTTVpsj9vbrv+hOqcOc2f1/PxmLu3NJ9z5nM+58zM+/M57/dLv//+eysAAGCfplYrUFZViBUVZZJb1eUuyspyMf2srK4Qy8tLpPSz9p6OT3/rYe+cP6pz96TJHn22Cqz4GvQeAAAAAAAAAIDx4aELAACaR62tFuaVFnn+pirsJS8vlSory8SKyjKJQqOWKKvKxZrau4LGtkUB+JSC/IBFx/cvjXonZOoY91670cMAAAAAAAAAAMYFAXcAgBfQ3bvHyy9VepwvUXbPKS70yisp8qT/UnCd7W2p71YLx6ZsiVvtOzpitpffGvQ+AAAAAAAAAIDxQMAdAOARyqoy8W/FN3vl3VF65qgUXnklSs/80lse2rqHqV+4EpG5Z7W7vZNsZKfu+3BUAAAAAAAAAACMAwLuAGDWaOV6huLqwPSbMr/0Qpkf5Vg3lH0LT/8p8orboi58npUWRwoAAAAAAAAAwPAh4A4AZkVeViI9XHh58KGCS0MMLcD+JEpZk3A9N2h8l9d34sgBAAAAAAAAABg+BNwBwKRRgD2j6MrA9MKrD1awU3FSY9r/PddyRyPgDvp0s0glSUrKGH86J99HLi9yb+dor/Lp2yN9wvhhm52cHJXoIQAAAAAAAIDGQ8AdAEyKSlspOlxwaTAF11P+kx9gbAH2J+XdKfLEUQV92RV3cPLiJd+tLq+oFD76+6PHzg7ZuGn33CX/+7dZ7wUN2o6eAgAAAAAAAGgcBNwBwOhRkD3hWm5Q7OXTIbSSXff7PZO5tml0dwU4wqAP366LXbjimx+WPuvfKQg/e86KGDs7G/WQQX1RvBcAAAAAAACgERBwBwCjZMpB9kcZ+wp9MEyXLss9v1kTs7gxf7tg4brIN1M8e9jZ2arRcwAAAAAAAADPh4A7ABgNcwmyA+jb5i17ZtfVNe78USrvSHbFHZr80YdBa9BzAAAAAAAAAM+HYBUAGDSFplSy7/qFkXFXc8aaa5Cd+kAicFBgNABbjmfl+jXl73/Lu+KNXgMAAAAAAAB4MQTcAcDgaGq1gu35pyfGXMoOzVRe9zX3/tDV/Y5rNbCqqEglacrfX7hw1Qu9BgAAAAAAAPBiCOIAgMHIu3PTc2Per9NjLp0OVd+tFqJHHlJUqSVSe0c5egLYUnO3lt+Uv9dUVqN4LwAAAAAAAEAjIOAOAC1Kq6vl75SdGR+Z+2t41q0bPuiRp+nqkKseAAAAAAAAAMAYIIgDAC0iv1TpsTH3+PTo/JNhpr6aXWDVWqOpvdvsFcKFleoOGDEAAAAAAAAAAIYPAXcA4AytZk+4nhsUmfdreHqhzM+UXhsF1d3tnWTuwnYydzv6r5Osq4PzJXf7djKxjb3ypXURvze3bd3vdbhWAwAAAAAAAAAYAQRxAEDvZGXF7hvzjk+PvnAiTFVTKTLaC+ZLFjrPdq55zwqq62u7yqoKMUYRAAAAAAAAAIDhQ8AdAPQms+ia79dn0j7Zcz13tDHuv9imrdLHRZrl69o58w1nt9PeLpJsgRVf05y2JLb2CkVlmaQ5z6U7AzCaAAAAAAAAAAAMHwLuAMC6dIXM74tTKZ8bU9oYviVP6+3klu3t/HK2b/vOmX3FL5+QCBwUrF1sLS11zX0uVrgDAAAAAAAAABgHBNwBgDUJ13KDlmYfWJR9u8Db0PeVVpz7dXBP93GVZvV37XzM09E1j2dhodPX9kR8W5W8vETanOdq63RY4Q4AAAAAAAAAYAQQcAcARnT37vF2XjkzfuXZtLk5qkIvg73YvWSh83HpmBXQ8bUU/5c9Ur1d3LK53L7AylrT3OeqqjUijDQAAAAAAAAAAMOHgDsANAsF2rdfPjVx6amDi2RlKndD3EeRta0qoKNHSkDHbikjO3bfJ+S3UbfUvgisWjc74K6pvSvAiAMAAAAAAAAAMHwIuANAk1ABz415x6YvP3N4viHmFn+4it3jwSp2H3GnLEPZL1Ebgaq5z8UKdwAAAAAAAAAA44CAOwA0iqZWK1iTc3T2utxfZhlSoJ2KnQa83C1l9CueeyjILraxVxrmxfalZueH1+iwwh0AAAAAAAAAwBgg4A4Az0WpY7bmn5y8KGvfUkMKtPuKO2WGdvWOGdPFazcVJDX0fpS0FSqa+1y1tlqIkQgAAAAAAAAAYPgQcAeAZ0q9cdF/7rGElXklSk9D2B93e5EszKNv9PhXvXa62zvJzOU4qO8i4A4AAAAAAAAAYAwQcAeAp+SoCr3mZe5ZcUhxZUhL7wsVPqWV7BRkN6Sc7E0ltXOUM3k+rXJvyaKvAAAAAAAAAADwYgi4A8AflFVl4gXH9y2Lyc8O1f1+r8WuD5SXfewrveJCurwe69+xWyrPwkJn7sdGXYOAOwAAAAAAAACAoUPAHQAeFET9+mzaJ8tPH56vrdPxW2o/vEQdcmb1HLBufBevnQIrvgZH5pFjpNOicCoAAAAAAAAAgIFDwB3AjBlCQVTeSxa6UdLuSbN7DVzjJ3FPN9W+7ihod4PJ81XVVSKMWAAAAAAAAAAAw4aAO4CZaumCqMLWbdRTu/eLmunpu15qzyy/uTmorK2xRS8AAAAAAAAAABg2BNwBzIy8rEQ6LW3HppYqiOohdM6P6DVw9eRub27l86y0OCKNo6rRYIU7AAAAAAAAAICBQ8AdwExQ+pg1ORmzF53Yt7Ql8rSPkr6WNKvHgHVUBBVHo+k0tXeRwx0AAAAAAAAAwMAh4A5gBrJvFXhPS4vdlKMq9OJyu5Q2JszjzeiZvXzXu9s7ycz5GIhtBUomz1dVY4U7AAAAAAAAAIChQ8AdwIRparWCL04e+Hx1TnqE7vd7nJ3vFGiP8Hp79eyefmuE/DZqHIlWrfgWrRmlz9HquL8rAQAAAAAAAAAAmgYBdwATRUVRwzN2RcrLS6RcbROBdv1RVleI0QsAAAAAAAAAAIYNAXcAE6PSVorm/PLzqpjLp0O52ibfkqed+/o7Kz/pNehrBNoBAAAAAAAAAMBcIeAOYEK25p+YPPfo3pWqmkpO8n1ToD28e//IT73f+UpsY6/EEXg2oTUmIgAAAAAAAAAATB0C7gAmQFZW7D7tyM5N6YUyPy62h0B702HlPwAAAAAAAACA6UPAHcCI6e7d463JyZi96MS+pdo6/RfVRKAdAAAAAAAAAADg2RBwBzBSCk2pZELKDzsyldd99X6heMlCN7W7T9Tnb/p/gUA7AAAAAAAAAABAwxBwBzBCu2W/jZl6JDZKfbdaqO9t+XVwT1/79nsfe7Zrn4eeZ4buEODiTgQAAAAAAAAAAGgZCLgDGBFNrVYw55f4VVEXT0zV97akdo7ylW8FzR3j3ms3ep4dYls7pby8RIqeAAAAAAAAAAAwTQi4AxiJHFWh14SUrTvy1bc99LkdgVVrzfzXhy7/pLff13yelRY9DwAAAAAAAAAA0DgIuAMYga/PpH0y/3jict3v9/R6zoa++kbMsrdGLZAIHBTodcOi1JSL0QsAAAAAAAAAAIYNAXcAA6asKhNPObhjS0pBfoA+t+Pt7JZNedp9xJ2y0OuGSXsPud8BAAAAAAAAAAwdAu4ABmrf9fMjww79GK2qqRTpaxtim7bK5W+Nmj/Zo+9W9DgAAAAAAAAAAAAzCLgDGBitrpa/4NekZavPZUTo7cR/yUI3t/eglQv7DP1SYMXXmEO/0t0CGYVXB+aX3nqQA1/Yuo36DZeXT/u6ds7EqAMAAAAAAAAAADYg4A5gQPLu3PScdHD7NiqQqq9teIk65GwZ8sEU+q859KmsrNj9ixMpn8deORvSUA58WuW/uE/A4o+699vMs7DQYRQCAAAAAAAAAEBzIeAOYCB2y34bE3Z4e7Sm9q5ALyf7Sxa6RX2GLl3o7f+luQSWE67lBoUe3BbzvD5VVlWIwzN2RcZdzRm7K+DDcUJ+G7W+9kdZicKnAAAAAAAAAACmDAF3AAPw2Yn9S5aeOrBIX+37uHTM2jJkwhQPB3G+ufTp+tyjMyN+iV/d0Kr2hhxSXBkSmPRdYtp7Hw/S14SEtg6FTwEAAAAAAAAATBkC7gAtSFOrFUxI/WFHkvzCKH20z7fkaZf2HblottfANeaULmVNTvrsiMw9q5v6vEzldd8vs1MXfv7m8C8wOgEAAAAAAAAAoKkQcAdoIZRbPDBxU2K++raHPto3x1XtpLnB9nrLTx+eP7Pn2+tFfFsVRikAAAAAAAAAADQFAu4ALSD1xkX/kNQfYtV3q4Vsty2waq1Z/lbg/Jk9Bqw3t36d80v8qtXnMiKYtEFpX+j4TOzqvR0jFQAAAAAAAAAAmgIBdwCOfXXm0KeLju9f2tjc4k3h18E9fcs7H0yR2jvKza1f2Qi218ssuuZraAF3dQ37kzMAAAAAAAAAAMAuBNwBOEL52mek7doQc/l0KNttm/OqdsJmsJ0YYnFTfdwNAQAAAAAAAAAA7ELAHYADCk2pJDApKjFHVejFdtteog45O/wnTTC3XO312A62Eyo2i1ELAAAAAAAAAABNhYA7gJ6lK2R+Ew5s3aGsqhCz3Xa451uRq3yD5/B5VmYZINZHsJ14tnPNw8gFAAAAAAAAAICmQsAdQI82X8j6KDztp0i287ULW7dRR70TMnWMe6/d5tq3+gq2816y0AV18kzA6AUAAAAAAAAAgKZCwB1AT+Yd27ti5dkjc9lu19vZLXuX/5Rx5lgYtZ6+gu0kzKNPtETgoMAIBgAAAAAAAACApkLAHYBlunv3eNPSYjdFXzwZxnbbET0Hrl7hGzSPZ2GhM9f+1Wew3UPonL+s/7sLMIoBAAAAAAAAAKA5EHAHYJGmViuYdGD7tj3Xc0ez2a7I2lYVMyw01L9jt1Rz7l99BtvFNm2ViYHTAkV8W5U+2ldrq4U4QwAAAAAAAAAATBsC7gAsoYBqYNJ3iZnK675stusr7pS5I+AvE8w9zcmCXxOX6XNlOwXb3e2dZHobHzUIuAMAAAAAAAAAmDoE3AFYoKwqEw/6eX1avvq2B2sn50sWukV9hi5d6O3/pTmnkCFrctJnLz9zeL4+2qZge9p7MweJbeyVGMkAAAAAAAAAAMDECwPusrJid0VFmURgZa2RtLVTICgF8Lj8UqXH0D0bDioqyyRstSls3UYdNzxs7GC3rofNvX8p2B6RuWe1Pto2pmC7vlLdAAAAAAAAAAAAexoMuFMe6q/Ppn0SdT5r6pNBRFp1K2krVEjbOsoltvYKiUCoePCzwFHeoa2wkH5GYAjMRZbyuk/w/u/jlVUVYrba5CK9ibHQZ7CdUvUkjvproJDfRs3Fa5FXlEiZPJ8mPXHGAQAAAAAAAAAYtqcC7nl3bnoG7otKlJc3HBzS/X6PR//2rH8nfEue9kEg/v5Daucof/D/bR4G5ykoT8F5roJcAPpyuODS4NH7N+/R1N4VsNVmgJtHyq4RYeMEVnyzD65uzT8xWZ/B9uSg6cPRzwAAAAAAAAAAwKbHAu6UPmZowoaDTFfraut0fFmZyp0erQob/htaxevt7Jbt4yrN6ussPeHl1CHH3PNUg/HYLfttTEjq1liagGKrzYieA1ev8A2ah/PgYf9OPbwzSh9tG2uwndIM4cwDAAAAAAAAADBsjwULZ6T9tIHN1BjPQ8Ul6RFz+XQo/Uyr4r1EHXJ8XKRZvu07Z77h5HZaau8oxyECQ8N2mhNK0xQ56P3wj17z2YzebdVq3/XzI9mezKjXksH2srvV9kyej7uCAAAAAAAAAAAM3x8BLUqPcUhxZUhL7Qitis+6dcOHHqvPZUTQ70TWtioKvns7v5ztI345q6+44wmkgICWtODXxGXLzxyez1Z7Ypu2yh3DJk/wk7ino3dbtcosuuYbcsD0gu1EfbdKiCMMAAAAAAAAAGDa/ghqRV88GWZoO6eqqRTtuZ47mh71v/N0FOf5uHTMoiB8X1fpCU9H1zyk4AAuzDu2d8XKs0fmstUejeXEkX8NxJ0cD1EB2uF7I5PZzIlfzxRytgt4rTHZCAAAAAAAAABg4P4IuGffLvA2hh3OK1F60iPq4omp9LPAqrVmdKceewI6dksJ6uyZgBXwoA+URobNYPso6WtJO/z/MgHj9aH8UqVH8P7v4xFsfzZRG1sVRgoAAAAAAAAAgGH7I+BO+dSN8QVQgI7ywNOD8sD7tXdPH9vFK26ktNs+sY29EocYmGI7Z/v81wcvX+Iz8jPcmfEQFWseFL8+TR/1Iwwp2C4vL5HiaAMAAAAAAAAAmLYHAXdlVZnYFF4M5YFPKcgPoAf9TMG20Z177gl6xTPB3d5JhsMNTcVmsJ2Ko0YNHj91skffrejZh+jaE5i4KVEfwXZvZ7dsU1jZXo/Ps9JixAAAAAAAAAAAGLYHAXdtbR3fFF9cpvK6Lz3m/pqw0kvUIWdUp+5JY17ptZv+Pw49vAibwXZKfRQ7bHLIyE7d96FnH9LUagXD936XrI+7azyEzvmJo6YGmlLKHiqwi1EDAAAAAAAAAGDYHgTcFVVqiam/0BxVoRc9lp46sEhia68Y+4pXXFDnHgm+7TtnIrUHPIntYHvyu+HDfV07Z6JnH9LqavnDEzYm0znJdtsUbE97b+YgQ0sppdZqhTjyAAAAAAAAAACm7UHAXVd3j2dOL1pRWSZZfS4jgh4ia1vVqM7dk6jwqv/LHqlI2wBsBttpVfLBoBlDPdu1z0PPPqS7d4836dC2bXT3CdttG2qwnahrqxkF3HkvWWJiEAAAAAAAAADAwD0ItN/Q3Olorh2gqqkURV88GUYPWokc5vFm9HTPtzYiQGqedst+G8NWsF1q5yhPDvzrcA8HcT569k8z0nZuiJOdG8t2u3TniqEG2x9ca6o1IibP72ArLMToAQAAAAAAAAAwbP/N4a7joysop/RdwbrczFn0oIKrs3oNWBfUqUcCVr2bBwq2h6RujWWjLUNead2S5h3buyLq4ompbLf74E6C0TOGGnJ/0/UFIwAAAAAAAAAAwLQ9CLgrq8vF6IrH1RdcpUDeg1Xv3ftvlNo7ytEzpqk+2K77nXl6JZqs2TUibByC7Y+jVD0rzx6Zy3a7lBYqLXjmIEO/k0BeUSLFKAAAAAAAAAAAMG0Pgoua2lqsvHwGZVWFePmZw/NXnk2bG9DRIyW8e//IkZ2670PPmA62g+3JQdOHC6z4GvTsn3ZeOTOerVQ9j6I0UPGjPgo2hrQ9VCiWyfOlbTHhBwAAAAAAAABg6B4EGFVaZrmF+ZY8rbbOtNPSUDA2SX5hFD0oN3e451uRH73Wb7OIb6vCMDJemUXXfNkKto917xm3Y1jYBJ6FBYpbPiJdIfMLPRATw3a7dN1Jfjd8uK9r50xj6AeavMNoAAAAAAAAAAAwbQ+CjGpttZBJIz5iaVZy4PThsrJi90ulxV3zSm565pUUecrUd9zzS295mFowXl5eIp3/a9LyxSdSFo/u3GPP7F5vr/ERd8rCcDIu+aVKj+CkzfFsBNvDur0ZvWlQyDQE2x+Xoyr0Ctz3XSIbffzYheslC13M0EmhxhJsV2krRRgNAAAAAAAAAACm72HA/S6zgLuojY2KCot6tmufR48xrXrtfvTfKbBJgXiZWuWeV1rkmXenyJMC8cZeRJAmEmKvnA2hh6ejOG9WjwHrJnq8sR3pRAyfsqpMHJgUlaiqYR4Ijeg5cPWqt4PnoFcfJy8rkQ7fG5msj/M81n9yyBj3x68zhkxTU8O4D1BDAgAAAAAAAADA8D1MKVPNLKXMiwLMlF+5oRzLFPT8rfhmLwq+56tve+QUF3pl3y7wZns1LBfySpSe4Rm7Iuf+mrCSiqzO7Om73hjySpsjTa1WELzv+3hZmcqdaVsItjeMVnQPT4xM1kcaldW+oyOMKdhOUDAVAAAAAAAAAMA8PCyaqmuZleZiG3uluKO90r9jt9T631F6m4ybsoGHCi4NOVRweQgF4o2pQ2k177rczFmReb+Gh3p4xyz0Hvqlu72TDEPNMOju3eNNOrB9W9atGz5M26I0Mgi2N3QOaAXBSVHx+jh3F7/pv3i2l98aY+uTytoaW4wMAAAAAAAAAADT9yDgrqhQS5g0QsUL2dohIb+NOqhzjwR60M+0Cv5wwZXBhxSXh6QXyvwof7oxdCyt0o++eDIsJj87FIF3wzEvM2HFnuu5o5m2QwVSKWc7evSJcf/fCY1M5XVfttumQsWfvzn8C2PsF1UNs7uIJLb2CowuADBmxcUl4pqa2gc1fe6UlIuqqqofLPYounWnQ12tjqe9/2/0Nw+umXfU4ur7P5eWlIkqK6sFpaXlIs39/37x2fQI/2H9EtCbTTN95pe7fjt3xfvR31nxLHVisajR7y18ayutyLmdsjF/e6tIJanV6Rp1t6quro5XdP/vn/z9J7MnLh43duhWHD0AAAAAMEYPPgwzTeEitmmr1NcO0ir4iV29t9ODfqZ88BmKqwPTb8r8Um7kBzDNP69vTwbeP/cO+AK5mFvGmpz02avPZUQwbYeC7TuGhU1AgdSnffxL3Fo2JjQa6vO1b4/92Fj7hWlqHZ6lJcYaAHDiVHaer1xe9EqR8o5E90jQVFf3O6/o1uOB0ScDq0ol/Vz34Oe6ujqe8n4bbO5byqGs0Qi4N93xrFw/mrR48vfyG0XuhrrPZ3+75IOAOwAAAAAYKx4VNjSmHa7PBz+9R/+N9HOOqtAr9T8X/dMLZH6Zymu+hlqItT7wHnv5TEh49/6Rn3q/8xVNJmAIcmO37Lcxc4/tXcm0nVHS15IQbG/YV2cOfUqplNhu11fcKXPL4A+mGHOfa3UPV3U2l7B1GzVGGABwYdWaHZ8fPXZ2iCHuW0Z6dgCOUNOUl1cKGwq2G7qLl+SeOHoAAAAAYKx4ulZ1PGN+AV6iDjn0+PT1IV9ROovMm9d8d1/NGRN7+WyIqqbS4L5gaOt0fFplHXn+WDgC79zILLrmG3Z4ezTTOzko8LvD/y8Itjdg55Uz4+f/mrSc7XY9hM75iaP+GviiwsyGTl5RKmXyfHGbtrhGAAAnGpsKpCUUq0rFlBqlV88u2ThSjVOgUEqNcb8ViltSHD0AAAAAMFY8RUUZ49t9pXaGkSKFAqF+Evd0eqwa8N6c1BsX/WMuZ4fuuZY7mgLdhtTxTwbeF7457EsR31aFIckuWVmx+7jkLbuY3vlAwfbkoOnDjT3wqw8PJjQO/RjNdruUqurg6BlDqa6DsfcRFZJl1BcCOwTcAYATlBbGkPcv9WBWEALujadQ3O5onOPwjgRHDwAAAACMFa+mrtbaJF+YhYVuZKfu++hBwa7dV38bQ3nUDymuGNRt0vWB9+j8k2ERXm+vnt3Tb40pBBgNgUpbKQpM3JTINH82gu3PRjUVgpM2x7M9oSWwaq1JC545SCJwMIlioarqKkZ320jbOsgx2gCAC/U52A1VYlJ6yD8+mfQZjlTj3C4uFRvrvtMqd4nEBe9/AAAAAGB0eMrqcrGpv0gKlE726LuVHgpNqWTn5ZzxtPKd8r8byj5S8dfFJ1MXr875JQKBd+YoZ3ZwUlR8vvq2B5N2KKXJrhFh4xBsf5qyqkwcmBSVyHbqJr4lT5v8bvhwqtVgMn1Vyew6K2ojwN0vAACtHhb6PH/hqlf3117JQW+8WHFxidF+zq+sqhbgCAIAAACAMWJlFZPI2niCQbRi9pPXB31NDwq477x8ZnzMpexQRWWZQdy6+mTg/ZPeg75GsLfp5mTGr8pUXvdl0gYF29PemzkIOfafRneNjNsfvUtWpnJn9YL0koUuZuikUF/Xzpmm1V81zFLKtEFKGQCAevF70iYi4N44urrfjbZWU0mJ8RV7BQAAAAAgrHwIt7WyrjTGF19fcHXZW4ELDhdcGhx7+UxIrOxsCNN832yoD7xH5v0avtRn5KKPXvPZjOHaOFvzT0ymfmPSRn3+cATbG/jyfu8eb8rhH7cwndBoyOq3gyPGuPfabWp9xnRCz8W27S2MPACAhxKSMkIW/XPqPPTEixXdUiEXOgAAAAAAx3iqqiqsHrlvsFvXw/RYO3DsxwnXc4OiL5wMSynID2jp/aL841OPxEZFnT8+ddM746d5tmufh6P1bHl3bnrOyti9jkkblD88ceRfA00lfzjbFhxPWhYnOzeW7XYX9Rm2dGaPAetNrb8ojRXTNiQ2QoxFAID6z0bKO5KMjNP+Awe+kYreeD4ry5d06AUAAAAAAG5ZaHRaxqu5BVbWJpPyhM+z0o7v8vrO5KDw4WdD5vUO6/ZmNKW5aOn9yrp1w6d37Mqz847tXUHpPDB0n0b9Erz/+3gmdyjUpzTxdnHLRo8+bfOFrI9Wnj0yl+12p3brG7Wk7wiTLIInryiVMm1DbNsWd1oAADxi588Hw9ALjXj/cBEZ7YStk5MQ730AAAAAYJQs2GhExLc1yYJ+lG5my+APphRM+dwtoufA1cLWLVvEVPf7PR4FO7vFLLuYcC03CMP3cZTmhGlO8eX9AucHde6RgN58GqVdCk/7KZLtdkd36rFnw6DxM0y13wo16g5Mnk/XHZoIxAgEAPjTgdTjo5Hj27Txra3x3gcAAAAARslC97vxFlPiCuXxXvV28Jzrf/lXp5VvBc2l/N4tuT+UD3r0/s17hidEJsvLSqQ4Qq1arclJn800zUm451uRVEwXvfm0/FKlB405mvRhs11fcafMbcMmTuJZWJjsLe/yCmbnaEtfbwDAvNjbCdTGsJ81d2v5cbsPTsYRe752jkKjXRQjdLRT4QgCAAAAgDGyUGjUKKbU2A/+/DZqCsgWhH3hFj1kQpino7hF86lTjvluP/7fxS9PHVxIhSzN9bhkFl3znXts70ombQS4eaSsfXvsxxjlT1NWlYkDk6IS2S4m7CF0zo8fNTWYwB8yAAAgAElEQVRYYMXXmHL/ycsZBtxt7RBwBwDO2NnZqo1lX3/ceWAqjtjztbU3nuP5KEtLC53Apo0GRxAAAAAAjBErKWWk9o5yc+o0Wo072aPv1twP5vdIGjltlF8H9/SW2hdtnY6/6MS+pT1+XJ6brpD5mdsApmDwuOQtu5isvKaJk10jwsaZ8irr5qKJnHH7o3cxTdXzJFq1nRwYPtxU01E9iuldKBJbexRMBQDOuLo6Gc015+q1Ag8qnoqj9pzj6dKu0Bj3WywW4b0PAAAAAIwW0skwNLJT9330yFEVen2Znbpwz9W80Wyn3WiMfPVtj0F71qWFvvpGzKq335tjDoFMCgZPOhCzTVlVIW72FzoK/L47fbipr7JurimHtm/JVF73ZbNNgVVrTfyID4PNZaKOcUoZW3uscAcAzjiLjKtQ5ZZtibMGDnwjFUfuGe8hRhq4dnZywHsfAAAAABgtnlpbLUQ3MEcFVncFfDhOVlbsvv63zJmR54+F0+pzrvcj5vLp0CT5hVHL+42a/1H3fptNedX2Z1n7lhxSXBnS3OfXB34lAgesomoApSqi8cR2u1HvhEz1EXfKMpd+VFQyS9slboMc7gDAHTeJWG5M+5uekR1wXX7TvZO0vQxH72ntXY0z4O7qihXuAAAAAGC8eOq7zALuImtbFDR6hLu9k4wKrH7+ZsAXa86lz16d80sE0z5uKtpeeMauyOj8k2GUl9zbxS3b1Pp53/XzI5efOTyfSRvRgyeGmVPgtyl2XjkznlIVsd3u0r4jF43v8vpOc+lHlbZSxDT3vdgWAXcA4M6rr7583pj2t67uHu+HmMSZny+aPgdH72nW1q21MVuWBNwuLhEXKe9IStVlojslFaKiomJJcbFaXFJaJiotLRe1xL45ONipHB3sVU5OQqXETSxvJ2yropXt9PvevbuewNEDAAAAAGPFOPWJwNoaqTgaQAVWP39z+BfTPd/a+Nnx/Uui80+FcZ1qJuvWDZ9+cauOz+oxYB1NANA+mULfUk7s0IMxMUzaWP7WqPlj3Hvtxkh9WvatAu+pR2Kj2G43rNub0Qv7DP3SnPqSaf520sFWWIhRCQBc6f7aKzmvdHbLLy/XCItVpWJj2OcfY1Onzvmf0C+MqeArlxqTcudmkUpSWlomioreOzsu7mCYPvaj66sd875aNnuai5ODUuwqUvAsLVE7BwAAAABMEnK465nYxl65afCEabO9Bq6Zl7l3RUpBfgCX26cg/+pzGRFxV3PGUioP/47djDrPKeVtD07eHM/krgEK/H76+pCvMDqfRkVoA/d9l8h0VfaTfMWdMjcNCplmbv15o6KkI+NriK0AK9wBgDMUtE4/tLFb/c8UiK2o0AhLSspFRbfudKgoqxTeKVGLCm4WSyvKNcKyMo3wVPZ5X1pp3lL7XFWlFcTuTPnor9PGfI0j2DyUeoYeb77RLVNfAXdnJ0flG709cGchAAAAAJg8HtOCfgJea6xwbwTPdu3zkoPChx8uuDR47rG9K6nIKpfbV1SWSQISN6bM7f3OymX9Ri0w1tzuVJiWSd95Oorz1r793scYkU/T6mr5gUlRiUyK0DbEQ+icHz9qarAp1xN4Fnk58xXu4jYomgoALedBDvAX5NP2GRB2vbDwtrQl9zNy089zP/xw9BqsmmbGyVl/xUpdkJcdAAAAAMyEBdMGRG0EyOHeBIPduh4+9f4nfaKHTAgT23Cfm3nl2SNzKc0MFXc1tr6jQPvSUwcXNff5VCR1h/9fJgis+JgkasC0I7Gbsm8XeLPZprB1G3X8yA+DRXzzrPWg0DArmMq35GlNJRUUAJguQyhwSelv4uOPTMTRYMapneMtfbUttLPB+xkAAAAAmAULdAH3aKXvZI++W6//5V+dFr/pv5gCwVxun4KqvWNXnN1+KdtovphSKpkph37cwiQP/rqBY2bRnQYYgU/78tTBhTGXT4eyOs5fstDFj/go2MNBnG+u/cr0DiKxrR1WtwOAwaNCl4awH9+uj12Eo8FMO0c7vU2QtxUgxz4AAAAAmAcLtbb5ubD1jQoOKjSlElPtfD7PSkuFVa9MWthlare+URSg5GrblKObCo9OSN26Q1OrFRh6Xy04nrSMSSoZyttOkxw45Z+27/r5kYtO7FvKdrtRg8dP9ZO4p5tz3zINuEts7HH7PQAYvHaO9gZxF5P8RpF76oHjQTgiDN53JC5yfbXt5OSISWQAAAAAMAs8JsUnidTOkbUP5rSKeeP5Y9NjL50JyVRe963/Pa0AHyLpemhWT991lJLF1A5CfWHVmb3eXj8vc8+KQ4orQ7jaduyVsyFZt2747PKfMs7bxS3bEPsnS3ndZ3VOekRzn+8l6pCzYeC4GTjdn5Z356ZnyIGtsWy3O//1wcsxwcE8h7tY0BbBCQAweKJ2QoO5Vn2zZvti/2H9EnBUms/BwU5VWlouYrtdvrWVFr0LAAAAAObAYFLK0Orlbtv/7+KsjN3rHg22E1qNved67ughCRsODU+ITFZpK0WmeDAoMHxw9MyhKYHTA6i4J1fbpaAg5XX/6syhTw2tT6iQ55RDO5qdSoYma3YNDxtHdxPgdH8cnUeB+6IS6fxis92x7j3jlr0VuMDc+5fuHmI6oSlug5QyAGD4XA2oGOaFi9e8sMqdGXs7/aR+cUXRVAAAAAAwEwYRcKcVzAN2rzkqK1O9sJBnSkF+wIC4NUeVVWViUz0o/h27pZ4N+UfvqHdCpnJVWJUC2vN/TVo+dM/6g4aUxuezE8lL8tW3PZr7fOpDd3snGU71J473vXu8cclbdjFdgf0kb2e37C2DP5iCHm7VSlHJ/DyStBUiOAEABs/Rwd6gCmMjlzszYrF+AuOWlpZ16F0AAAAAMAeMA+4ivoDRlyxaZRu8//v4pqyypQDsoJ/Xp5ly0J0Kq370ms/mix/8sxvlH+dqu5TOpveOlWcpr3dL90Fm0TVfJqlkwj3fihzf5fWdOM2fNiNt54b0Qpkfm21KbO0ViaOmBgqs+Br0cKtWN8pLOzJtw0Poko+eBABDZ2dnW2ZI+3Mu94r38axzfjgyzeOop8KpTk5C3LUFAAAAAGaBccBdYGXFKLj25ckDC5VVFU0OnJtD0J0I+W3UtGI4aeS0URTQ5GKbqppK0ah9m5Lm/BK/ilK6tMTrpkKukw7GbGtuKhlaab3KN3gOTvGnbb6Q9VHUxRNT2WyTUvckvzt9ONUjQA//9xpV2vw7M+q9Yt/uKnoSAAydvlZEM/H/vvlhCY5M89jY2uhl4pxvbY30fgAAAABgFlo0pQyltYi6eLzZgT9zCbqTkZ2677sYuqDbrB6+67ja5upzGRH94lYfzy9VenD9ehf8mrSsuelOhK3bqKkILPK2P43SN4Wn/RTJZpu8lyx0cQFTxnq2a5+HHv5TdvF/vJn2q4eDGCvcAcDgCWwN786m7OwLvsjl3jxu7Z3k+mjXzk6gRu8CAAAAgDngteTGs2/f8GZasLE+6J723sxBpr66llJ1rB049uMxr3jtnnLkxy1s599uCBWz7fPTN6dWvhU0d3qP/hu5eJ3pCpnfutzMWc19fvSQD8Kk9o5ynN6Po4kpSt/U3LsGnmX128ERVHcAPfzEtYnhCncPB+d8Si2FngQAQ+fk5GiQn7++WbN9sf+wfgk4Qk2jr5XodnoqxgoAAKZJV1fHUxapJEXKYklNTa110f3//6y/tbTi6Vxd2hXS/3eTuMhtbNpo9JUiDQCgMVo04H617M4rbLRjTkF34idxT8+d8I8etAqcSWC6sWhSJDxjV+ShwktDNvlNmEZpbvS3La2AJhOa+3zKdx/UuQe+XD/5YeXePV7wvu/jm5O+6XkoT/7MHgPWo4ef7u+8O0WeTNpAsV8AMCZ2bW3V5RWVQkPapwsXr3nRKncE3ZsGudYBAIBrly7LPc9fvN4rN/eyt0xW4JF/+YanUnlHwqRN69ZWWldXkULa0VXm7u6W/2qXjnnvjX5nu7V1a9wJDwB6xzOVF1IfdD84esZQicBBYeoHriVWu8fJzo3NUyk9EwOnBeorGDjv2N4VzX0tlON+VX/kbW8IFUnNunXDh802h0i6HFr79tiP0bsNXI9KlR5M7ySgFe7oSQAwFm3tDC/gTrDKven0kfqlQwdnOXoWAADq3SxSSQ4fOTky4+jpgOPHz/np4zNEzd1avvxGkTs90n85E0C/8x/6VgIC7gDAhRbN4d7RzvEGm+1R0J3Sn7REzvGWUr/anavc7tTHA3Z/ezSz6Jov221T+pqo81nNzukf6fd+uD5X3xsrfRRJldo5yncEhE1AypOGnS9RdmfahpdThxz0JAAYi3aO9gZ52zatct8Vd3AyjlDj2dnZlqEXAABAn4YGzMj952frIlMPHB/N1YQ9rXhHmhkA4ArjgLtWp+M397neTm7ZAqvWrBbaopQZg+LXpyk0pRJzOYj1q93TRs8aRIFQfW/vQR//vC5t+6XsiWy2+3F63NrmrgqmVDJUWBan9OMoHz7bRVLpnI0f8VGwiG+LDyvPkFNc6MW0jVfsnK6iJwHAWNjYGF7h1Hrfro9dRHlgcZQaRx+51vWVFx4AAIxT2xao6yGRiOXoeQDgCuOAu7K6+Tmh+TwrbZjHm9FsvygKCA/ds+EgFYk0p4NZv9p9bu93VvJe0u/KYwqMhx6MifniZPLnbLRHwftM5fVmrZoXWduqVvQPmofT+XE06TThwNYdbBdJpTsJvERYff08eSXM8rcTD0cnpJQBAKNhyCvG6Fby7duTp+MoNY69HlLKIC88AAA8qiXujHOTOMnR8wDAFYuW3oGFfYZ+KWzNfhqQ+pzu5hZ0p9XuK/q/O+/omI8HeAj1nwN68cnUxRNSt+7Q6mqbfacDFUqd/2vi8uY+P3LQ++FYbf04Oh7B+9kvkkqTORO7em9HDz9fXomSUcCd6hHQuYyeBABjYWNrY9DXrDXrdiyqqbnLx5F6MX3kcAcAAHjsc0ML3BlHBVTR8wDAlRYPuItt7JVUhFMfK7Ip6B6YFJVIAV1zO7A+4k5ZZ0Pm9eZitXvslbMhQ/f8u9l3FHx15sinisqyZqUAGuveM26Me6/dOJUf93FG3Nrs2wXebLZJRVKX9Ru1AL37fGpttZBpEWNPR9c89CQAGBOhnY1BB2mLVaXi9Rt++hRH6sX0k1LGCillAADgD66uTpwHvyUdkFIGALhjYQg74evaOTPWf3KIPgLDFHQcnrAx2RyD7pSyh1a7J42aNorSruhzW5QOpl/cmuNNLVgrKyt2X3nmyNzmbJNe0wa/8TNwGj9ua/6JySiS2nLy1cyLNns4uCCdDAAYlbYCW4NfFb15S0JEcXGJGEfrxaiwHJvtiZzbIaUMAAD8wZJnyfn3SldxO6xwBwDOMA64M13JWY9WKesr6E7BYAq66+7dM8uCWf4du6Weev+TPt7Obtn63A6NhT4/fXMq9cZF/8Y+Z87R+FXauuYV3kUqmaflqAq9wtN2oUhqCzpdrHiDaRseDs4IuAOAUTGGopjlFZXCb9fvXIij9WIiJwcEyAEAQG/c2nOfT10icbmBngcArlgY0s7oO+g+4UD0DnMNukvtHeVH3/ufAVO79Y3S53Y0tXcFo5I2JW3MPfbC4mQUmE+SXxjVnO0glczTVNpKUfD+zfHNncB4lujBE8NQJLXx8ktuMV7h3tXB5RJ6EgCMibEUxdy2fV/4dflNdxwxAACAlsPj8Thf4e4mcZGj5wGAKxaGtkMURKUUKLSqlu2242Tnxppz0J1SzGwaPGFa9JAJYXxLnt5Woul+v8cLz9gVOeeX+FXP6mv6fcTR+NXNaR+pZBruz0mp27axdcdJvUV9hi3FxEbT5BQXejFtw1OEHO4AAPpQV3ePt3zFlmXoiedju7CcqwsK1QEAwCPvCy2Q3kWCgDsAcMjCEHeKUqAkvxs+XF9B949/iVtrzgd9skffrcfHzelHebn1uZ3V5zIigvdHxTeUP//rnCOfUFHb5rS7zm/MLKQ3edyX2akLUwryA9hsM8DNI+XzPgFfoHebJq9E6cnk+TShhPENAMbG2cnRaFKQ7E8+NvZUdp4vjtqz8SzZza3Ls3wJNWAAAOAP1tatOU1FJ0b+dgDgGOOAu7KyXC/Fp6iQqr6C7pF5v4bT6mtzPvCUIuTs+/N6U1BVn9uhlDEDdq89qtCUSv4YM1Vl4uXZh+c3pz2/Du7p47u8vhOn7p8oNc/ik6mL2WzT3V4k2+E/GUVSm4jGufputZBR3wtFMvQkABib1tZWNca0v4uXbFqFo/ZstrZtNOgFAADQFycnh1tcbg+r2wGAaxZim7aMViRp77GbL/pR+gy60+rrz07sX2LOB1/Ib6NODgofvvhN/8X6yJtfjwp5UjHV7FsF3vTzguP7ljUnKEn7uGpA8Byctn+Sl5VIQ1J/iGWzzYdFUj8MpvGBHm6a34pv9mLahpcT8uUDAOjbudwr3j8npE1ETzTMwdGe1TutWiJXLwAAGC4bG24ndtlOlQYA8CIWlNfbkHdQn0H3pacOLFqTkz7b3AfB528O/4Ly5lMqC31tQ1lVIR60Z20aTXJEXzwZ1pw2wjz6RKN455+0ulp+cPLmeKYrqp9ERVI927VHDvFmyC+9zbhgqrudE1a4A4DRMcZCZMu++n55Tc1dPo6e/rniVn4AAHhEO0c7TlNourUXy9HrAMAlC2PYyfqguz4Kfc49tnflbtlvY8x9IFDe/FPvf9LH29ktW1/b0NTeFdAkR3OeK2zdRr2k34jPcMr+aUbGrg109wCbbaJIKjPZxf/xZtqGh4NzPnoSAED/lMo7kvUbfvoUPdHA5y47G9zlBgAAemNnJ+D0fUYicZaj1wGASxZMU4moteyurn0WCrrHDJ0UynbqE93v93ghqVtjM4uumX3xLKm9o/zoe/8zYGq3vlGGtm+LvIctFdvYK3HKPrQ1/8Tk5t4p8CwokspcTjHzCZDujq7n0ZMAYHQfKFkussmVf0fumn+zSCXBEXxcW4EtAu4AAKA3dnbcvs+4tsedVgDA8fcjiUDI6MLDdjqL56GVt7H+k0P0EXQfvjcyme3VwsaIUgxtGjxhWvSQCWH6uKOgOaiA52yvgWtwuj6Ud+em56yM3evYbNND6Jy/a0TYOBRJZXAt1FYL89XMUsrQOUcTX+hNADA27Y00N2rN3Vr+8hXRy3AEAQAAuOUkcuBsQZ1bB5cb6HEA4JKFse0wBd2jBo+fyna7lO6Egu75pUoPDItWrSZ79N16fNycflK7lg/+rfYNjkAguH6cagXB+7+Pp/HKVpsPiqSO/DBYYMXXoIebL+OmbCDTNjwcXJBOBgCAY/F7joSePpvvg5545LOBLbvF7FCsDgAAntTamrt6gq5iJ7wPAQCnLIxxpykYvNp3dATb7VJhz+B938crq8rEGBqtWlGBUsrr7ivulNlS+zBE0uXQyE7d9+FoPDTtyM5NsjKVO5ttxg6bHOLhIEagl6F0hcyPaRs+4o5Z6EkAAO79a/GGteiFPzk4sFvMztLSsg69alg0VdUCheKWtKFHeXmlED0EAPrG1WSsXVtbNdcpbMAwlJSUi/D+Bi2FR8UomTai1dXyKRUJlzs+28vvQYqRiMw9q9lsl1JCBCZFJaYFzxyEFb+tWon4tqrkoOnDJ6T+sCNJfmEUp4PzJQvdqgHBc3CaPrQx99j02CtnQ9hsc/7rg5djQoMd6TeZB9ypVgV6EgCMlVjcTkGFSI1x38/lXvHesTPlownjAzbjSIKxKy4uEV+6fKP71auFHgUKpfTmLZWkqOjho6pKKygtLRc1ph0KUjk5OSqdnITKTlJXmfTlDjJpp/aybh6dfuskbS9DTwMAo+/7HNV/kUhc5OhtblF9nOLiUnGvnl2yudgeTSKfPnWh/4nsC74XLl71unq14P773y1pXd093pN/a2PD10g7tpf16ume3eeN7pl+A99Ipfc6HDVg/Ron5DMPuCsrK8QtkXeYgu6KynLJyrNH5rLZbvbtAm8Kuh8M+ttQpDKhlCN8TfyIqcFTDm3fEnP5dChX253a3SfKs137PJymrVpRfYGIzHhWJ5f8OrinL/EZ+Rl6l4U3+FqtIO9OkSfTdvqLOx9DbwKAsbI00sKp9VZ8vW3pyOEDdmMVHBjVZ5CqakHWiXMDz5y57JObe8n7zNlLPuUV7Kzgo3bocfVagUfWiVy/R/+NgvGv9+6a1a9vr/Q+fbod6927WxbPyK8BAMAtiZtY3upErt63g7Rm7KFV4ndKykXq0vJ2t4tLxBTUVt1Ri28Xl4pv3y558N/CwtvS+r+f+mHQ6s8XTdfLIkparb4v+eiYxKSjISdP5flSXZ7GPI8mni9cvOZFjx07DzxIVz2gf+9DoRNHRA4b6pOA9zJgC8/YX8CK/u/O09XV8Vafy2A1xUx6ocxvwoHoHTuGhU1A0P3+QLnfB9uGTZoktrVXsj3B0RC68wLB4P9+karVCsYlb9mlrdPx2WpTbNNWucN/EsY2S47dvN6fii8zPSYomAoA8JC0o6tMfqPIncttFqtKxau+jflcX18MjQmCE4bt/IWrXvuSfx2TeezMELo7o6EVfPpGgfj0X84E0IN+pjREfgO9U0YG9I+j1YLW1q21OFIA8DxWli9x8l3UrQVXuFNQuLxcI6TANE3od3/tlRxD6X9Kt1JVVS0oUhZLampqrR/eBVUjuFOiFilvqSSaKq2g+HapWKlUScruv47G3h31qKjvEyL6eHtmjgjov5vN98Co6L2zE/emhzQ2yP4iR4+dHUIP+vw5JyJ08XtBg7bjDAWmeKbwIla9HTxHe6+WH5n3azib7cbJzo2V2CQoqH0MlYdogkNia6dgO5XPkxa/6b+Y0tmgx1u1mnRg+zY287ZTqp6YoaGhYht73DbFEpqgY9qGb/tOSCcDAPBfFLi7U1omSkz8JYTL7W7Zmjgr5H3/zV1flZr1HXZs51x3w+38jMmu/sfj5z0ZExOT0kO4noxqDArEUAFietDq9/eC34kJ/WD4RmM5l2jV5px532yp/9nR0U5lY2vzWHpRgQ1f4yBsq9LX2Kc+1FRWCxr797q633lFt1RPpfFS3b4j1tY8DELZ2wvUUZGfBeMM4sbWH5JmJiUfHVv/84MV3E9wbuegtLbmNWpCisfj6VzF7Ro1AVpeXiUsK69o9N0tFFCtvT+GnjV2+vXtkf73iNAv9NlfYhduJnddGW6nPmheq6vjUfD5v9eMjvRfCqTXn4tVlVUCCmLXn8uPrvQmNDF55uR2V7ZXUF+X33S/f+2d2NC1oaamhk9B8wfH/P6+02ug/aNV3lydF3ZtbVi5c/B41jm/b9Zs//zJO67YRO+vs+esiNm2fV/42m/mTWpMOqJDaSdGbvzu5z8Wpbq6OikseY8fY6GdjbqtoPF3UPKtrbWUzq2xf1+kvCPR6XSNju+WqitEmifGwKNjhUydMnq1/7B+Ccb8PkypgviNKM5Mi7hpwqmx7VZoKoXq+9fcR39Xf/7/8Z1i8+JAnrStg0l8AF779tiPVVqNiILkbLZLK+fFgrbKT18f8hU+QjxEqXzEtnbK0AMxMUxX9T7zQldeKkVPt2q1Jid99p7ruaPZbHNRn6FLB7t1PYzeZU/mzWu+TNvwFSN/OwAYNwosPfnlsrnow/SM6eO+Onz45CguvxTSSuEvlmxa9eO2L4fiiEJLoy+A+/dnjtmyLXFWdvYFX2PZb1r9Hv1D4ix60G3606e+t3LgwDdSDXmfz+XJ3tBnEKclUQCAAhc4o/Qv9eDx0Y+NIw7SpejtPC6vFDYUcKfxdOmy3JONbRTcLObkO/+Z3/J9vlkd8zmlPqmueXxF9KOTDI8G3erqKLjObl0aCnTf/1wzku0g5sGDx4NWffvjYkMdS2Jxu0Imz6cJhS+Xb16ReuD4aK72md5zBwfMyF26eMascWOHbn3e32Ydz/UzxfcPj67SPC4D7qb2PpxzNr8vK8FSeUWJtKVTIVBqDEr/oqn5TpBSkB/AZtvzf01aLrEVKiZ29cZtJf81vsvrOynty9iULXGa2rusfxGuTxFkzncXZN8q8J57bO9KNtscIulyaKG3/5cYweyhotHZxQXeTNvp7/oK8rcDADyivatI8cnsiYuXLNu8ksvt0i3FexMzxr8bOHAnjgK0hJqau/yY7cnTI6Pi5hprIeJHzyd69PbqmrXgH1MW9PPpmW6I+3nmzEUfUx1PV6/9x8PR0RMLOziQf4mdQLQheFZQPX5P2sTFSzeuNqbXQoFaLoO1z3M47cQotoOYTbkzpiU4O7Vr1p31VKNk7dqdCzfefy9sidRptODj7/9YFS27Wuix4NOwBc/6O9k1hYdJvndc5fZ15edf9zSl/rtw4ZqXhSm9IAq67xoRNs5XzH5qhrBDP0anK5injTAl/h27pSa/Gz6cck/ro30Kus/5JX6VOfatWlstHJe6ZRebdxDQcdo2LHQS8razK0t5w4dpfn2+JU/r5dQhB70JAPC4Dz8cvabrqx05T0mxZFnUSvqiZ679jtWwLYNWV27+PmF2vwFTrlNAy9iD7Y86m3PJ5/0P5qdNCluUTKsVDW3/5P8xvDQ9bJFdVXTF2aV/9J5BtUBM5fVQgJNSPDz5+0tXTCsoxrXjWaZ5J82zWLe20janGD2ljxniPyP33xt/mt8SwfZH0T7M+ceqLc/696tXC0wy4H5NXsjp+6L8P0qTeh+WXSvwsBDw+BpTelECK76Ggu4eQud8Vj8A/36PF7x/c3x+qdIkT6bm8nXtnJkWPHOQ1E4/dzhQ0P3rM2mfmFu/zsj4aYO8vETKVnvI264/GTevDGTaho9YmoWJEACABt6/LC11Xy2bPY3r7VKgk1ZVmWu/29q00WD0cfx5IuO0/6Ahf71IgXZTCto9iYqsDhr614uU3oEmGAxlvwoKbklNtc+bkpcWmo2jisgAACAASURBVO/R3MemoqCBgLtCUSzF0W4+yhFO6XpYPU43DfeYiJwcmhR/oImrzxZvWEsTtGylKWRDXNzBsC+WblxlTtdYrvu/qKjYpPqRrpUWIhsbk1vBQkHF5ED2V16r71YLhyd+l6ysKjPZD8HN4eEgzj8+dnY/tic56s39NWEl5TI3l/7cmHtseuyVs6wWiVvab8Qi5G3XDzbyt/u4dMxCTwKAsdPXqug3entkTZo4IpLz9+OouLlUqBJHljkLlgvEmZKb97+oTw1fEh865bMUQyyGqg+0WpHyDY98d/YptnJBM1VcbLqTHJS3Gmea/tUX0zQl988Llyd/d6ekTISjzYwh3uWjL00pHH3+wlWv4SNnnaX6H4b4WqK+T4jYFXdw8qO/owmCmru1fFM9fsXFJZy9f5jaNbRAoZSyklLmVnW5i6G9OMopTyuvBVatWV2hQ6uOg/d9H6+p1ZrtbcYNoUmOU+P/3kcf6XxIROae1RSINvV+zLtz05MmGNhsM8DNIwVFf/VDd+8eL+vWDcY5P+lOEfQmABg7G1sbva2Knj9vygInkQOnd2lRUHDegm834cgyR/n40QtP259ybMzQgBm5hpJbmGsXLl7zoqD7tu37W/wzvinfVfBkkUjQj8rqaltTe01UT+LJ35WVa4Q42swolaoO5vJanZwb99ltx86Uj4Le+/txQ594XrBoXeSjizHUJeUmPQFVw+H7R63OcO56Y4P2/vXTQmQtYLwaSVtnmG/itPKacoyzHXSnANukA9u3UbANbxd/onQ+yUHTh4917xmnj/Zn/bJ73W7Zb2NMtf+o+Oakg9u3sVmEVmJrr9jmP2kSRqd+ZN++4c3G8erv2hkFUwEAHv2C5uT42Bc0yv+59H//xvmKp+zsC74/J6RNxBEBNtGKOMoHO/1vX8aVV1SadfCKVgb+87N1kdQfDQX3gDnV7TtY4c6B0jumF3grL69CcF0v/Wo+kxbtHOyfG2+k1GL/WLB60z8WfBtlDCvFaR/NaTHGHQ4nFFQmdqcZpae0sLWyrjTlAUIrR6MHTwyjHNZstrvneu7oeZkJK/B28TgKuu8YFjYh3PMt1m/9pjz6IalbY1NvXPQ3xb6bkxm/KkdV6MVWezTmdwRMniDi26LwmZ5k3LzKOH+7p6M4T8hvo0ZvAgD8iW9tpX3ydyMC+u8e/M6bSVzvy9Ivo1aynW/V0NnZCfC+pCdUhHDMuHlHKR8seuNP1B8hk/55kMvb1+u1xDa5pMUKd2imsvIKBNyBkefdnUiTzxNC/3lwx84DU43pNdFijL2JGePN4fhV3T9GXG3LFFPzWEja2pv8LZ5j3Hvtjhz0fjjb7VJBz/W5R2fiMvo4Kv64we/9GRE9B65mu20Kuo9N2RKXWcQ8b7YhSbiWGxSZ9yurY5TytiNViX5lFTFPJ4P87QAATXhvWzzjYxsbPqcFPSnVxPIVW5aZUz/THQUYbew7lZ3nOyJo9ilKpYLeeBoFMcZNWJDGdX7jGgSkAcCIWVm+ZLB1UlzF7RqMN9JE56h3I05lncj1M8Y+X/HND0sx8uBFLPiWPC3TRiivuaG/0I9e89m8/K1R89luN+KX+NUULMVQauAi5Bs0b4ikyyG226UUHuOSt+zKL1WaRCEzeVmJNOzQj9Fstom87dxIL5Qx/oDg2wGTIgBgGoR2NnoP0kokLvJ//uPD+Vy/th9jU6aePpvvg6MMzUX52kPD/pVcWlqOgoPPcfVagceY9+cd5bJgsaQJRf0AzAmPx0PBaz2wtGK3X8UuhlsnxbWBGi50fafJZ7reG+sxpFzzh9JOjMRohuexkAgcGJ+cigq1UVSTpQAk26uuacV16MFtMdm3CrwxnJ54g7aw0G0bFjrJS9Qhh+22lVUV4uGJ3yUrq8qM+hZQqgMw6eC2beq71azdrie1c5Qjb7v+UfofNo5bX5eOJ9CbAGAK2gq4WRU9ceLwjb29unJ6dxAVUP3X4g1rKdcojjQ0FQXb//bxstiqKq0AvfFidFfJ+xMWpHEZdDdlEjexHL0AzdHQ6mRnJ24LmJtkv7q0KzSX1+rgYHfn0Z/puk7Xd8pvbeyvbVfcoTBTP35uHE5IW7e20ppS39m1tVVb0P9hWlRUWV1hNEHPVW8Hz2G7qCetuA7c910irVTG28fjxDb2yuNjI/pN7dY3iu226c6K4Xu/S9bUGu+Xl8+y9i3JVF5nLT0O5W3f5T9lHPK261+G4grj/O0ia1sVFXdGbwIANOG9ztJSt2L57GmWlhacrrw7l3vFe+vWJKQShCapD7bTpA16o/Eo6E53BJh6fnUwHdbWrbXm8DobWrEMTcN22jZDPiaPTtDUB9vp+m4Kx/Hw4ZOjtDU1SEnGEpGJTea1tftvwF3URsAoOEerjY3phVNRT19xJ1bTODxccR1p1MFffeHzrLSbBk+Ypo+c7rTKeNz+6F20UtzY+iVdIfNbeTZtLpttruz/7lxvF7dsjDr9S5KfH8W0Dd/2SCcDANAcXV+V5v3PzBDO82d+syZm8c0ilQRHoPHEz8jfag4QbGemsPC2lHK6azgo2mbK45SLdF/QqpWTk8MtU3tNtgKbpxZmdu3SMQ9Hmxm27xJwdLBXGe554fjgtdLk6YNJVBMJthMq8lmoKO5oymPVzk6A949mEti20Tz48Cdu01bJJA+7srLcqE4aSnWSOOqvgf3iVh3PV99m7VZFaiswKSrxYNDfhtI2MMQeR3cX0H+p2Cyb7aYU5AdMS4vdtGXwB1OMpS/U2mohpZKhlERstTm6U489s7381mCkcXP80guv+jFtB0VtAQCab+aM97/am3Q0hMscoOUVlcIvlm5ctXH9wnE4Ao1jaWlplp+JqUDqnLlfR7d0sJ1uae7Xr2f6K53c8qVSsUzasf3V+lvEbWzaaBwd7VQ0iXSvro5XpCyWFBXd6ZB/+T+eFy5e9Tqedc6vpdPg0Pk9429f7tqy+YtAnh7Hkr2dQG0KKQ4a4iC0x52vHGhtgivcHYRt7zz5u569umBxFwOUNqM+CM0WsVhkkClq6icyadJ0wqSFB2kS1dSO54nsC770PkufD03v85uFju27MZ6HPpuY0hhxvn+eP/gASCuQmTSkqCwzug8nQn4bdXJg+PB+u1cdZ3OFPhVRnJG2cwOt6MbbydP0FXSPvngyzN3OSbawz9AvjaEfZmT8tIHN84bythvThIOx23fj/Eg2Jkv6uiJ/OwBAs7+0WrfWfr1izpQx7889ymVQc3/ysbFUKGvIoL77TLl/TfULJBeuy2+6fzR9aXxLBatf6eyW/97oQTED334jtVfPFwfH2v83HUF98dB3W7XaSf+lmgWnTp33pZX6P8cfCW2p8ZD+y5mAFSu3LVnwadgCfW2DclVfunzD0xTHo8TNeIrC0uRPkVIl0ZRX2t9+Tjqh+2P1Bo9noXMVOymcnByUhpDOxcUEc5s7OQmfek0+fXtmUCAOd+4083u7tL2M7TY76aFNNlDAkd5H/nr//dBUr6+Xr8g9KaWPKX5ecuO4oLiTs2ldQ13uj4sHF0kK1rViOCdG+cul9o5yY+oA2t/4ER8GD03YcJDysLPVbtTFE1M927nmYbVxwyjorqgqlcTJzo1ls91FJ/YtdRe2k43v8vpOQ3792y9lT4y9cjaErfbq87bTJBJGFzfiZL8xHrt8S57W2wnpfwAAmHijt0fWlMmB66K+T4jgcruL/rVhnU9qzwyBTRuNqfYt5Z5EwL3paCVf+Mz/21VaWi7icrsUABsxwjdu0oQRG/v59Exn5TOmpaWO2qLHogUfzYvZnjx9feRP81siJcC/N/40/y2fHukDB76RqpfvhdIOsla/nDHJMenWwemGIe0PBeAuXZJ7XrhwrdeF/Gte1+VF7levFngUKG5JmxvEdXCwU1FwqKPUVebp8UrO32aM+4rr1yU2wdzmzk7tngqA0fte7/vvvdnZF3xbQTOuNewHx2kVMp0DXL/vvIijQ1vVF0u+W3X02Nkhpno8ZTKFh/T+dccUJxSkHV05nchxa29aBb47vewqe7jC3ZLHeEZYWV0mNraAO/ERd8qKGTopdGzyljg203vMPbZ3pYeDS75/x26preAplEe/VavoVmwH3aceiY3q2NbhBh1XQ3zdNDE1K2P3OjbbXP12cATytnP4RbpWK0j5z8UApu1QsJ3p3UUAAIaE7VukG+uTv//ls+TU46O5vA2VtrV27c6F+lxxC8bpn4vWb7hw8ZoXl9sc0L/3oYULPpzX/bVXcvS1DVpB/NGHQWtCJw7f+M3qHz/fGBU3l+sVrnPmfRN9KGVDD0qDw3bbIwL6766rq+PdKSkTlZSUi5RKlYT+a0yTTpS+gX//OInFIoW9vUDd1k6gdm7noOz6aqcWz7m9NzFj/Nnf8n1OnrrgS8F2yn3MZvsUaKQHFbdOTPwlZPToQdvbcxwApwmqxYumR+TlX/OqqanhF98uFZeXVwrLyjVCVXGpmO3XzCaasKNx087RXkVBUpFzOyWNnWelkxgVMCAOAffmkb6snyBmUODA2IOHT4yquD/mDOW6df7CdS+6Q4mV96DWVtrXXuuc84r7y/lu7Z3k9Du6i+zQkVOjuEwt+CRKxbZo4YdznZ2EypLSClFZmUZIk4d0PWrplGyNRXc00iIL5//eLSRxE8vbWFtpBw54I4XL/Xg3cMDOu7U1fHV5lVB1+45YW1PLp/dibc1dvqGnfKu/htLdDnQdpb4c/E6ffQ9zuNu0ZfwF6VaVxsVYL3pBnXskULHJiMw9rBX1pOD92JQtcafe/3sfDwdxPt5anvhAYmGho6C7WrtBeEhxhbUZT7pTIXj/9/HU7xKBg0GtMqDCrpS3XX23mrU3wFHS15Jm9hiwHiOKO4cLrgzW1ukYf2Ae1bl7EnoTAEwJ37plJhFptd2qFX+f8v4H89O43C4FHOnLgT6DnGBcfk5Imxi/50gol1+Sv1nx9zD/Yf0SuNomfRmniaYRw/vvnjV7+Q75jSJ3rrZNK+sXffHvtf9eM38C223Xr+R/6vN7XR1PWaSS3CouFVOak99yr3iv+OaHpS01xjp0cJZ/MnviYkqpQjn42znaqYT3H4Z8t01NzV3+zNlfxXK5zcJCpbR9C6w4p0mp5/27QnFLWqu7P6aUKklldbXtmTOXfdau37GIy30M+0vgOt+3vA45Ora9Qyl5mjN+gkcP2k4TCw/fg/kaB2FbVcOfC6y1DaWleVTqoazRqQeOj9bX671/fdyju9/nlZWPF1+moOijP3MVIH2tu34+MyxZPONjetT/TOmZqqqqBMXFanGpuqJdWVmFsOj+7yo0lUKZrMCDrUD4i67ZjN5vWltp3wseFPPuqIGxfby7H2sodZTN/fG36tsfF7fU9Y3GDKUYbCjNIF37iu+/d1BQvqyi0j7reK7fxqif57bUvv7fklnhL0tc5K2trWrojiBra/brCTBBn6ef95ma7iBUl5SLaBKTJjPv963Lrt0Hw7gYy4+i4PqypbPCqSYOXd8cHYSqZy0EeBBwF7ZmnorC2AqnPonSv8jLS6Vs5han4C8VUT0+bk4/Ed8WxWqeHHwWFrr4kR8FD0/YmJypvM7aDDnl5Kd+Pzrm4wECK77BfPj86vThT9l8nSJrW9WWIRORt51jcbIcVu7KGPNKr93oTQCAhrk2MVBCgbIJ44dF7dh5YCpX+0irexcsWrfh510rB/DMtDAo/ImCG5/969/ruNqet/drmevXzJ/QvoXSWFBu+H0J3/ah9Dlcpgug1cvj3xsara/UMk99X7l/blNu+/r89rRd+oLP5UTDoyi4M27s0K3Gdm5wvc2CwuKOfbxbZRpaX9SPo/qc23W13N4lQsHJT/8RtoDpBA0Fl1b9vzmsfA8tL68S6jPgvnjRX+dImpGLmu5wqar6M0hPk253a+7yH77/11kWPTKuKaitral58G+qO2pxdc3Duxlu3f+bWp2OR4HX28UPg8/du3X6jYtjXf/e4P7Ky08t/jx9Nt+H6yBlU9Bk8kdTglZP/TB4zYuKdtKkTkvvL03MNvQ58MFq8UfeP/ze9k5NSMoIaanV2j17dDndmLouhoquW/SQtPpzrffefb+EcL0ffgO9UyaMD9jcqM8Q9D9s5H5WVJUZfVX3Fb5B8+QVJdI913P/P3tnA5fj+f5/X0KShKLIRG1CpaiUokeVHlQqD5OpYRgbNja2/Gc/fDHmYRiGyTBMrUx5LN1RikrpSaVy042b0pNKUfv+d2zfvmNCdZ3neV33fR/v12uvzdRxXtdxPR/ncX4+xG74BZWl+lPPhBw5PWHeeCgw4+fIPy6ajsrV4R6zfMaEbr2UW/GQ2FKg9NK7JkExP+8/7vq+vxD2M+VBsdnKq6dXkowZ4vRuIE7ksKWu4ZkyifuDfneNAv3umgWYUQRBkObp0KFDY2t/J3j57KWxcamuLD9k0tLzLA8fPj1nxnseuNpMwfl8+ZY9rJbxu423Dt3x3bKpfE/0QCHkp5D/Gz//43VHwEyY1bjBK7/fHhv9wxC+9n/qJNe9azfsX8fH2NCFC11+suQfAd3crMeUFL/YvSxUbt++x3Tixs1tTKjQzh01NRWqPmRt1daHSYXnu1Z1dGTHfPhNCNng18fb4dCK5e8vbWnn9ZtWULCgtqZO9U0TAwA8s+bO8tu4cvXuLXxsZ86NwuGyXHBvDtDQZz3mRC/7Qy392fZ/3oS6qHE+SSXVFTJfcIeC+EHnadMt+wwgqv8NkikfXQzdhp8izQNF49iJ8+1JSBs9D+jDr0k+/yXf+wea31PPHThC0iNggZHNdveBw6Lw7GFL3N0CWxIGy356w0MxmwiCIKQ/2rtWrF2zYC7rcb/59sBqPjo4EeEA+tSsugVnve+1ZfeOL/2FsqoCtgOK/yDbwGpM6C6HiS6+9tnfz/EALCnna/zb4nv6snR9SCQPBjAf865UVxZyI77DdqVEwNTxuxXp3gySJLgC7WWEaPCrqdFDun/fVx7fbVoyvTUyJ9oC2JeWFNubmDzFeR908POxnfk35cvYFVaOsNbvh2PXGhm/PwvunTt0rOf8UHtcLhcfGn92XLu/76OrRtYAdlfW5bm7MxPmtEOav+mrdJfG+sy3JyFv9DzQVX729g0XPvdtacJvG2ClA6l4Buq9c9eO9kCTNh4gJSeDkyUIgiB0AA1NP79xISzHhK7mr1fv3ozZb56OSvJd7IBu41Vr925kMRbIJn0VPGex0HIABa0tm5ZMNzZi1zm3dfuR4Pr/yjuwBopBLCcYXvruljwcIEvXyH0e5BMkkhJdWciNWMyu4K43qH/uSFODJKHloDdFDWkNAXdy833P5qvo2xymJoOTzkZtM21OB/1NgI62LOUeVpiAXA4fY6dn3DSTp/O4oJC9Wa67m3Voc14Cr+LPgrtuN+7FZdDNlpcDB8Xf054fjCdd/F1wMWx7THGeI97imwfMZU96zvZU7qBETIeryby2oLKEl06QE0WZXjDZQuzh+K/2DQfHTZ8uJG16RQFMbyOKsjjLyYD2vo32oHjMKIIgCB2+Dv5gsZZWL6YdTyCnER17xR2z38x7tZbwOulI8sMPYZ+ykDEaY20a/e/VH80TchFhz64VPj16qDGROwQzvkM8drm/O8l1L19js5Yh4Qof3ebFEtnocL9ZeIdZwejdyc57hZgDMHDEJyV7uqkJo+AOEjLghdNW806Q+uFz8qAt75vTp7nthtUXrLc1J+cvo2N5obBQMpj1mP6+Tq3yUPmz4K6hosL5xUhaIz8Fd6Cp+AsFTlIx/yz+ng4JzS2XGrRDmgUKkYfGTQ8gGRMkQHyi9oWDtAvLfSmtq9GYFXOU6IvNaiu3YLM+/VPwTGFP3N2btqX1NRpc43gPMozAbCIIgtADlvauXvnhAtbjLv9y+67q5wzWEPmnpKRMa/feX5fQHkd3gHbBD7uDfYQujQAmfevWfMRM1ink4G8L+NpXaxuTGNYTe00UFBXL1LckH93mfJnatuob9Y/nBSvPEZBA8vG2P6xo9+j+cqS7Lo+5AYk0kJDh+myzsjIW8bUPPXt0b3UtFSYXpk5hP2kLptt5+WK5kZXJyGTbsd+vX2+xuZlhqxon/yy4Q7cs125uKESBoaA83YSg+AvGlCRjVjx9ou4T9WN4Rd0T9XZIs/jqDw9bPco9mGTMrDKp4bzY4ztZ7sc80bGdJAq0/zsftQbGf2ri8C2eIfwQeSvHg0Qcj4GGkZhNBEEQuoC+IhhLshwTCiffbvppFWZfcfh+9/HP4QOW5hhQKNuyael0WTHJdHO1DmMltwJF1bi4VF6kI6FANHWSCy8dwzcLJTJVcOer2/yWwLXuCxma/cE1qUlRugWRPZ43hOUDKLaTkkhztDfn7ftaT18nty2/936g11Y+vECyb9waLi/ncEER22fhRG/HQ639nfZN/6Gj2p3zDL28dbkD0wabHQ42d15NMmZuxUMD/zM/HgeJCrzVN8+X5uPWBA6xCCEZ81B+asCOzEvzWWz/gdwrM8C0lVQ81Y6dqkFKBox98ezgh9BC7vrtIJfk8pbBWcwmgiAIfdau+mgeK3mLJvYfOLkgNS3XErMv/0B3+8FDp6h3c8+Z5bdRiLrLr32PXzZzKatCwsEjp+bytZ+T/MYd4GPcQhkquDc0Nirx1W1+5/Z9PSHn5vbte8y2z9/PKaQdgjyHSlcV3iZxSRbbAZdxo0/wIdECGBropbfl9wbq9i1wc7MJZb29aXL0jpqdU8hUIsff17HVz/y/C+5d1TkX3MWPy3Tl8Wa0apTbCu+BRkQ7NaIlN52Wxp/YgLf6V7PHfspsu376IpIxF10M35LyoJjq0hNJdbnOoosRRI0wttv6LtDtTtbIF2k58feLbCQ1lZyXfLq+NeSMshI/LwMIgiC06dBRSVCTwtC9xVLeAmhs/F3pi+DtO6HIhGeEfLP3x98W1j+lu7oXTA6XLpm+QtZyA4WEoBme21mMJRKluPIl5QTawaCtz3rc8vIqjaqqGplYLS0W3+Wty/yO5IGgaxPZObeYFItA+shurJlCNvxoa2tK2iHN0r+vJi+1BRrm3/C+5znB7igf+2NuPiShrb87f47/etbbe01OCu7wDJQyNOQGY194t2nt7xHtcH/wpKqPvN6QDjpPm26i0S+dZMwtGXGL9uUkzcTbffNAN3f4+Jk+Buq9c0nFBB19/7P7j9OU9Jkdc2wPSAeRiuenbxw6w2DUATwj+CPqVjYRIzxvPdRvRxBEjj9s+/S6K7RtAnkL1tIyOTeKTH744ddP8YyQX6DAe+jnKOqTOcs/C1wmdN32V/FegOcOFl3uMOlx7nySF1/7OWWSM0+yMrKh4y6+w1+XudDNZcV32ExG+Ps6h8jqfYQrHZQ64OrwV9BdrRtzo1G7sSPO0DL//vjDyWtYS7TAKkpT0yFtXoE2bKheuuUoIxHLbYau8Pr6pzIvBZ6Xf4upFr2XR9smdP4uuHdTJyApUyV3kjJNgM79SY9Znloq3Yhqn82N/WWXSFJgh7f85lFX7lIR7v6+D1ePgRdebqrKdINift5PY3tBsuZMca4rqXg6XbtL9thNnY1nAr+EFl7nLCcDBszuuoZRmE0EQRC28CEts2nroZUSgXdXIm0nLDRmRtVjuh3G8BEOXgSymiPoBLOzNTvDYixRXKorX/sJx0itW1fmhaucnCKZ0OG9fUvKW9G7+K6w78GspIHeney8T8h5KK943AufKuxRU1Nhet+CFVs7v//Sn9bkDzxz3mVsROrhZhPKdX/mfDBxI8tthpWY8tDlnpMjZvYM5GI6/b+Cu64ad7kKae1juS24AzqqPSThbu/7gA4zqZjQcT313IEj0tpKuc4dFwx6aOWGjg/0g4IlqZgRtzK9t6aLFpLcTnFlme6yyyfXkYwJpr0w6YBnAX+kl941Kags5fyxYNlnQJKGctdSzCiCIAhb+JCWga7bxUs37cfsyycHGXS3f7Jw2teynidWpqKiuBTeCu6dO3eq85pgy1zKoOiWbHS4F/K4nWLxfcF2uIPsWAGDVQowcQfSR0I+R2qqa1XbIczR1tZgJrcDk5L7937lSdv8+4vlM5f269eb2fn+fuCErVxjONmPihr8zoAslsc+LS1vlKyfv9k3Cpjpt4+xNoluq8kwUQ13SXWFTjs5x1JrYNJehymzSMaEiQqfqB/D0UT11Tj2HxyzzspzGcmYyxIj10ExlchL0x/HLujCz/urnz0l9sKwyNh2C+w3Hn1+OVGUQWSZsvcgY5STQRAE4QmQlvH0HMu0KJZ0JdPueOj5GZh9+QJMcfPyb1NdygxaoVaWxiJZz5Wd7cizKirK1I35QNO8oPAOb4Vd34lOzKUfCwpko+B+k8ftFAtYUiYvT2wInaa0x5nKuOMXkR06d+5Yz2qsTRs+CWyL/nVrgYL+7h1f+rN47vj5jQvR13uLiPTxnFlsu9yvpmbbyPr5y8oDA/DxcTzU1t/9X8G9n2p3zrqbJEwFZYFpg80OB5s7ryb6UfbgtuW82GM78db/aj4dYf9twDsjD5GKV9fYoOx/ev/x6md1nIvkW9PjForukpMGAr+AtaM9luNR55+Q3ORAEnG89AxPYDYRBEH4Y92qj+aBeRzLMVeu+mFLWVmVBmZffjj2yxnq/kuzgry3yEOuoPub1cRBckqONV/7OdLUIAnkEuS12MAF2pNTr6O2tk61pKRMkKvICwslg2mPAUVHd1frMLxrI82hrcXGUBaKySzl0YYbv53y3aalATT13OFdcsWymUtJxfPxcTisqdFDyipHycmyXXCHFUIwacliLLiPOo+zbPP5+7ekTLdeYq4bowgd7k2sGuW2wkN3aCTJmHtvXJmFJqqvZ6e9/zyS5rUgFbL4YvhmLjFyy6UGwVeiiE3AgGTRfqd3g5SVOtbhEecXMEsFzX+uccD4V7+76FgczQAAIABJREFUZgFmFEEQhD/U1LpWrF2zgKm0DOh8B3/9/TbMvnwAH3lnziV50xwDPuTd3Gzkpkg2ZrRpNItx8m/yV9gFJvk6hbAcr6S0XEvok3mwfbD6gM9tEGqXe0bmTTPaY/j6OByCSS+8cyPN0bkz/VrD0CGD0pd9HsS8iRAK/MePrLOn4d8DBdjvv/t8alslRpoDdODnzmbX5Q7vpmCeKqvnbmFhsQFIN7I5l0ZHcJFC+l/BHYp7Gp256QtLa6sUSof8iMt7Uw17ahHVWwIT1ZQHxWbtkGYB89rw8TN9uJ6rzwMTHSeKMtskGwJSMtPPHz4I3fKktmf1KPdgkpMKSNvZlZ1ApDDj97ZJKGYTQRCEf0ArE5YBsxzz5MmLU6Jjr7hj9mUf0cUUF9oFRH9f5xBapnJ8YGY2NIHFOFnZRbwWD7y97Q/T7Khsjrx8saGQj70Qtq+AQSd5m7ariL5hKh9SR0Kjdy92XcOyhqZmT+q52bXjC3++nmfmZobxp05sNQcfA2I50+ghPRTyf+MhNuntnTLZdR9LA+6kpCxbWT13s2/cYmaYOsFzDCc5yvbP/0GnGzcdd9CvJiHPIStA8fek+weeWirdiN2swETV59TecDRRfTW63XuKDzkHBJCMOSvm6F5JdXmrV2iAlEzKQ3ITJE46b0eDdA4eZQG8CFeW6EeKczxIxHJ5y+AsZhRBEEQYfB38wWLW0jLLv9y+q7r2CRrDyThRpy/70R7Dy3PMMXnKmcHgAVksCtF8dzL31daQgLEayzFzctgVHdpCfv6dYXxvg1gsFWaHewbdDncwYQSpI0W/Z3furIQd/q+BptY5FI9Z6La/DjAMPn5kvf3WzUsDdAdoc9oW8AGKPLHVnEax/c98qXWtmOTPbqVU4tUMO1k9bzMz85k0KMMKCbuxZpzqOC8W3FW7o3FqK4Hi7/HxQf5K/yL3Igla+FPPHjyCJqqvxmXAkLMrLVxWkopXWl+jERT98/7W/A5pKRn1Tl0qQEoGj64w2J2VOIdEHJiQs9EeFI8ZRRAEEQZ8SMtIpY901n8TshazL9vExFzxoBkflt8Pfkc3S55yBpIW+nr09c3hGgPJHz73lYuxWlvIu3lL0B3uBUX8G7uK79wVXMEdpHZAEojmGKwljhDZhIbkShPd1Nh1a7+JiV72hy/F7nv7yME1TlMnO+9tqV46/Bz8/JnIbabfb102FSZWaW7nzEDvraxWSiUmZtjx/cxsK+kZN5kU3D3cbEK5rtB4IcE6quqcTyBpTbWWQY92ue0UCCim7XWcPCsw+gixBxsYcC6+9OvmbbZ+H+GjoHm+NHNZE3+vyCZactOJRDyIsyPz0vz5RmN2vOlnYTIkKPrIfpJSMnsdpszSUe0hwSPLP3UNz5T3ZifOInKjHkDW6wFBEAThDkjLTJ/mtuvg4VPMCu8hP51cMMFjzDFa3VEIXZJTsmxoy8m4j7eRSwk66DJkYZ4pvV+qA2PxtZ9gULn8y227wKyTxXhCN069npHPu0xqYaHEQGh5yblRSHVlAhTs/HzHKbycDPJmVLt2qVak/bWxNo2Bf+C/7/3xvMjJLRxe8rBc6/4f/930M93VulXo6PQWv/POgGzWHfrw/HJxtoo4dTqB+mo60HG/nnHTTBZXwuTksJGQ8/GyO8w1xosd7l25F/tuVz8aoIg3qxkGow4sG+G4jmTM7ZnxCw7kXpmBj4LmUWrfvuGgc8B0kpI+yy6fXCeufLNJ5u7shDlJD25bkho34J2Rh3z1h6OLvEA4nJ86reLpE3Ui94aho/CFF0EQRIB8sXzm0n79eotZjrl02bY99fVPlTH7skdsXJoL7TFcnC1PyGPu+jMqgldWVavzuZ/Qze/lOfYoq/Hy8sSGQu5QZDHJ8ibEYuGZptIuFkHBjqShIyK/0OxwFzrQrQ7NF1Mnu+77ZFHA103/zHzfayuYrvIlh/PBLF9m8sIJCemOsnbcwBuExaQ2SE+SaJD5h4a7GvcO99rHCqs9vsrSfYVrf4MzJGPOjT2+K730rkk7pPkLQaW7lKSkD/gQBF34ef/r5HygIA+FeVL7oKvWU7zT3n8eHk3hsD3j0gIScQzUe+einAyCIIgwUVXpUr15wydMpdwKi4oNtm4/9qUi5Vmnv5ZYHvYjPuGaE834sHRd3uRkmuih3o1JUaeqqkad73318XI4zGqs+qfPlKHoLsRjfkt8T59Vp/+bciSRPNAVUm7Ss+jKIfj7oZwM0jKUO3dEjXuBAR3nZmZDmdQPLiWkOclaflgZpk70IiMR90LBfYBqr9tcA0qrFbfgDh3XR1xmTNXvrkFsNgwkS3xO7QsvravRaIc0CxQ0V1qMX0kqHsj5gBnqq/4eCvJQmCc13i5b/7lgwItHUhgkSW9ZkprkmjXUai9mFEEQRLhYWRqLAt/z3M5yzO93HVuWnVOIzRQyBBjeZmTSLZLZ2pmdkdf8aWr2lCrKuQL3FJamzDk5RYI0Ts3Pvz1MKNtSWCgZLKjc5NHr/Idzj6vJH6I4aPTuRe3e3J9HeS9ZZ+4s340sxklOybaB9xtZyg0rw9QJhAzsXyi4G/TU5Ky9XlBVoq/IF4e6cpeKcLf3fVQ7diJWQBVXlelOPROCJqqv4fORjutttAYSmwkEM1QwRf3n/weJHyjIkxoncIhFCBjA4hEUDluvX1xIIo5yB6W6GUMtUE4GQRBE6O8QnwUu1xvUn5n/UGPj70qfLN28X1bNqhSR1OQcazhuNMcYbWEoktf8seqibGxs7CCE/fX3dQ5hNVZObpEgJ++uZxaYCWVbCgSk4w7FLZpSO9CVydXkD0EQfnF0tIjSHaBNXdIG3muSrmTYylJuWBimwjfBsKF66SRivVBwB3kOroXilIfFZop+gRj26psV4jgtkGRMMPRcnhi5Fm8/zfOnnvu46dPVO3Uh4oYNKwvmiUJ3Pv//JNXlOosuRmwhtc0anbuWbrb2WYxHTzhIayu1IooyvUnE8h5kFKGh3BX1ExEEQQQOSMt8u2FxEBjNsRoz50aRyY8/RizE7MsGl5My7WiPYWY2LAEzzY3nje/4xItQZ5xQig9tu8cJZxWP+I5wdNxvUF7d5O/nIHPNPjj5zB/afTQkmAXhAZNmgdMnMFl9GRd3zVWW7hUsDFMnetsfIhWr/T//h0GPPpw6fEDDHeVP2rUDA8xgc+fVJGNuTLuw5NjNa5PxFtQ8ut17infZ+88lFQ862XdnJsxp+vM80fGdpIw0gV32k+bCigg8csJhX/bVmTDZQiLWnGHWuzGjCIIgsgFoZs4K8t7Ccsxvvv1pdUHhHQPMvvDJpKy5DMZ1fBm0IeQBLf6hQwalsxiLRfGhLVxLy7UUyrbkCkjnPi0tbxSt2KD7rK/3Vq6sXS9CmShTRJQ6/AtXQwiUyVOc96l160q9VnQ+5oqHrOQEPEtYeIN4eowlNmn+UsGdhP749RLJcLxE2rX7ytz1a9ImqrMuHN2b9eieIWb3FTemt0ccmzVkFDHd7GWJkeugsx0mOiLFOcRuRt4DjSJgUgaPmHAAyaZdWfFEJmzALNVOR1+EWUUQBJEdln763gpWRTIAzPxAWgYzL3xS025QLR6OMDVIwizLF74EO+ReBxQfhOYJce9+qU55eZVgGvAKBSQpk5pObyJiki+apSKtQ7VrF/SRE+qxUelSPXWyC3U/uLt3H+rKSvNHRubNkbTHMDZ6O4VkA8RLBXcTzX6cPzTSS+6hEVQ7OiaqYNY59exPR6qf1alihptn81ifxbpqPcUkYkFHe1D0z/sXiMKILekB2ZttthM/wiMlLE4UZXpJaiqJdFigWSqCIIjs0blzp7pNjKVl0tLzLA/8FDkfsy9c8vLpd1QNHaKXLs85rK2tV7jvFg8PW2ayMiyKEK0hU2DbU1JarlVVVaMuhG2htSJBRUW52tOT3TmHyAewugqzIFzeD/LeyuKd9MKFZHdZyEdmFn1vkIleDkQny1/ucFfT5FwcTi+VYMH9v4BkyPHxQf4kTVSzyqSG82KP78TsNo9qR+Xq/Q7vBpGKB/r5pfXkZJI22ngt0VHtgXppAoNUdzuapSIIgsguYJL0ycKAlSzH/Pc3P66TSB7oYvaFSV7e7WG0xxhupJ8izzl8VFbBpNtZW1s4esR9/9iWMdam0SzGyrlxS1Df3kIyTG3iZmEx7x2cZWVVGuLb96noybu5jQmFjli8YyOI/ADPERdnqwja44guyoaOe+o1+lJl48dbE1WheKngPriHZh7XoFAQxsvjb0w0+qXvsps0l2TMQ/mpAc/riyMvAnIei4xttwhuu/rpi2YOtdyHR0hYgEwTTKyQiIVmqQiCILLNh/P815uaDGYm8QHd04uXbkJpGYGSnUO/mKmn1y9PnnNYfK9El8U4HTp0aBTSfnt6jDnKYhwh6aUDQjJMbaKosHgw39tw7foNavrtkyY6YrMP0mrU1FTRT07gzAry2kp7jKvJWTbVtU8EvRINti/nBl3PEvDB6Et44r4ZDXfuHe5Zj+4b1jU8U8bL42+mDTY7vMTUYSPJmIviw7ekl97F1QSvYO1oj+WgpS2U7YHOZ5Kd9wg5dmddJjZ5hWapCIIgso1Shw4NIC3TuVPHOlZjJl3JtDty7MxMzL7wKLxFvzNWV7efXBumlj58pKWI5477+DFhLO4joOFeX/9UMN/eQpsAAPLyb/PeEHjtWj6VvOgO0C6wsjQW4d0aaS1qal0racXu2RPlakhgbmYYD7riNMcAT6ELMVcFLSuTmXGT+sopGj4YLxXclZU61nHVHG/4z+9KuRUPDfDyeJG1Vh7LnXTeJra0sK6xQdn/9P7jqOfePHAu73eaGqT0r/aCcN9ePco9WLc7GW15hBxw/YTkXg0kEQvNUhEEQeQDfb23cld8MXsJ0/eEf+/bCGaDmH1hkZVNt1tXb1D/XJjkkeccFkvYdLgLDTW1rhV2dmZnaI/T2Pi7UlZOkSCasG6J7+kLyTC1iYIi/o1TMzPzqBSM/H3HheCdGhEaKl1VUOKIEDPf96au3BAdm+wh5BykpeWNohkftPJdxo0+QTpu++b+p0EP7l3B10slw/HSeJE/TVRdA6eSMvT88+WhslR/+rnDBzG7zWOpNTBpkYkd79Iyln0GJC00sd2KR0R47MtOmglmxCRioVkqgiCI/DDjPY8dlqOMRKzGq3pco/7Fiu3o0SMgGhoble7efahLcwxdXe0Cec+jRCLVZTEOFLiFtu8T3McykZVJp1yMaClCM0xtIjdPzH+He1oelQ53P18nlJNB2kSnzp3qMAvCx93VOkxTo4eU5hiiuBRXeOcRag6uXae7cmq05XARjVUZzRbciRinPryHUifNANrO4W4zfUiaqEbcyvTemi5aiNltnlWjxq/gumqDC9Bhv9N+0jyYcMGjISwq6p6or04+H0wiFpqlIgiCyB+bN3wSpNaNXREv5sJVj+Oh52dg5oWBWHxXn/YYA+W84A6rNmC5OouxugtQj9jF2eqEiooy9U7Pq6lZNkLY37TrwpOTAWDijE+N4rx8sSFMqpKOazd2xJm+AjILRmSLPpp0i7gIGTp37lQX+J7ndppjwMqk5ORsG6Hm4CrlbaPluUKtwz2r7B4ap74CGiaqSxJ+25jyoNgMs/syIC2zx37KbL7GDzYftxqOOR4J4bE1Q7SwtL6GyLJXNEtFEASRP3R0+ohXrvhgEcsxV676YQtKywiDu5KSAbTH0OzVU64LHjfzbw9jNVbnzh0F160JhRIX59ERtMe5zkDftiWkXhNmwR0oLOBPVuZqco41jbgoJ4MgisHUyc77aHuCnItO9BLivtOWKoO8enraHqMRu9mC++AeffK4Bk55KMHi72sAE9VFxrbEpE5AN9//7P7jpXU1GpjdlwFd7VlDRjGX+wBN789HOK3HIyA8pLWVWutSY5aRiodmqQiCIPKJv9+4A44OFpGsxkNpGeEgvn2feoe7pqa6XBfcCwrZFTk1NYU5eeHuah1Kewzo4C4pKePVnBaMW3MEoiXfHPn54mF8jX3tOnk5GVh9BSso8E6NIPIPPN8m+tgfojnG6bOJ3kLc95SUbGua8cFrRVWlC5WVaM13uPfU5NzhXvH0ibqkuhy7c17DBhuvpTZaA+OJfRRUlelOP3sQ9dxflW9r76VaKt2YvYiDlAyYtkKHPWZfeKxIPLUKjIdJxEKzVARBEPlm0zefBPXoocZsFRNKywgDFisNdHT63JbX/IGEByupE5bST63F0dEiisX94xrPOu5g3MpKPqgt5OTyNxmQkkz+OvCaYHu0M2pwIxxoL+eG3fLGjOmeO2jGh4nb7JxCwU2apl3Po7pyym28DbVJ8WYL7loq3aXqnbpwfmm5XnIPjVNfw18mqu9N1ehMTobiTHGu6/pr0Z9jdl9GXblLxfaxfgtYjTfXcPQuMG3FzAuP3HKpQUhuciCpeGiWiiAIIt+AkdK6NR/NZTkmSsvwz8NH5dQ7hrW05Ed/GTqcU9NyLb/fefzzd6d/ed5kxJSSU6cT/Fhdo4L95uvQocHV2ZK6rEzS1Qw7PvczlXIXIlcKCop5kZSBlQc0Vsv4TkSzVIQbqP8vWwwbqpduajKYan0p6vRlX6HtN02pMpCTcR5nSW2l0CtdaPXVNQpSHnLTBM8qv2/oPnBYFF4ar0ZHtYfkkHNAgEfknkiQhSERMzjx1Gpr7UEJNtqD4jHD/3gx0R8e5trf4AxMTNAcR1etp3jtaI/lmHFhsvxy1FpS1xuapSIIgigGbq7WYX5+40JCQ88HshgPpGW+Xr178+4dX/pj9vlBUizVpT3GZ8u37tHpryXu31dTDEvGe/XqXtpDvduj/jp9xCoqXaqFWEhuaGxUAkNZ8Z37erdvSfXzbt4yvJ5RYFZYWGzAV4ez0CcuJnjYHj1y7NwsWS1KtISrqTk2Qj4G2Tm3eOncTE69QXwiQm9Q/9yRpgZy0dhVXvEYJXERpIXMCvLeMn/h+qO04p+MFE357NPpK4Syv1VVNeo5N+itTqIpJwO8suBk2WdAEteCe8rDO6jj3gJcBgw5C8aaK6+eXUnkJRj03E/vP542ZYkprFbADL/INjvfj4x+Xp9JSk6kOXbZ+s9V7ahcjdkWHiJJgV3ErUxi+mRzh1nvQrNUBEGQdu3uP3jUT9738evgDxbHx19zkkofMek8h+5gkJYBHXk8w9hTUlJBvcM96UqmXbsrma/9GU2NHtJOnTvWaWtrSKBbWrN3D2nnzp3rVFWUq3uod/vzHUS1a5fqf8qWtFauprGxscP9/66qqKt/pgydufX1DcrQ6V/68JFWWfljDfj7ktJyLaEdK21tTUEX3C0tjePg+NA0fgP9dFhlwJfMyDUCBX/dAdoFPl72h77bcTS4sZFMc8z/ruc/ztuysioN1pNYySnk5WQm+TqFyMt9trq2ThWfNgjSMtzcbMI0V/0gpfUchtU4BYV3DPT13soVwv6mpeVSlUrzn0j3XvrKh5iJpk461+BZpVJDvCRaxpdmLmvi7xXZREtuOpGIJ619rDX93KGDpyfMGw/SNZjhv9HvrlmwZITDxtXJ54JpxA8cYhECkyiYaWGyPPHkWlKxoLv9czMHNMVFEAT5g8ZnDUryvo9qal0rNq5dNCsgaMUZVmOCtIy1tWkM66XfT+uFq8XMirLySkF0XjZ9WIO+Kt5pmkenXx+xkLevSVaGZpc7rC7IyMw3MzczZL7K+Zb4nj6JApC/77iQjxdMWSO6mOqalk5etzcvX2xoZWksYpmby4mZdiTjdejQvsHb2/4wXvUIonjAsyTwPc/tGzb9tJrWGKdOX/b9eMFba4Swv5eTyN4/n0dFRbnaznYk1bpd+1f9xcje/VO5Bs+teGhQ/QxnLFt04bRv33DQOWC6TtfuxD6moHi/JuXsl5jdl/ly5Lg1IPtCOi7o8W+29lmMGRYmYQXXfZMe3Cb28g7d7biKBEEQRLGw/ePlHD52WI0H0jJfrNi+k/V+CrGLmTU0u5ERsujr6+QKfRtBVob2GMnJN3jRUU8hpN/u6TH2GPzbxnpENI3tzMm5xdRjjoYcwhhrk2jU3kYQxWXqZOd9oD1OK37U6Xg/oezrtfQb1KTSXJxHR9BeEfbKgrthT+0s6N7kOkBuWYkBXhItAwp3R1xnTFX6F7mO9NXJ54NjivMcMbsvoqzUsW6Ljc8i0nF32U+aC+asmGHh0fD770rLEk+uI3YOYXc7giCIwvL5Z4HL+/XrLWY1XsyFqx4gLYOZZwdIT2AWZAe9gTp5Qt/GJlkZmmMkXrlux8e+Jadmc5ZNGTpkUPpA3b4F8N9jrIfH0NhO8BtgmRcacghTp4zfi1c8Qgra9ySEPOD34uY2JpRWfJgkhFVLfO8nSKT9cQ+lVnB3d7UOpb0Pryy4Q8e1YS/tLK4DXHkoHoWXRMsBo9PVVm7EpE5Azz0w+ueQ0roa/Gj4B16DjE6AgSqpeN4DjSLAlBUzK0x2ZyfMKagsJfbgwO52BEEQxQUMlrZtXjIdlvazGhOkZe79V18boU9t7RNcpStD6MlAhztIAXh50u1yv5aWx4tx6tXkG5wL7u7jbf5X/BhhapBEo4OTtXEqaTkEtW5dKxztzaPwikdIAbIamAXZY2ag11aa8cMjLkzjex9BIo2WETsLORmg/ev+EoxTuQ6QW/YAO9xbyecjnNZD8ZZUPElNpU5Q9OH9mNmX2TzWezGpFQUwWYIZFSYVdU/USWr2Y3c7giAIAjrJs4K8t7Aajy9pGUXlQQlK6sgKg98ZkAWTYLKwrRM8xhyjfZ/IzilkWlQGc93ComLO3/xNcjIALPO3MCevRZ+XJzZsaGxk5jdCesWB1wTbo3yZ4iIIIhyGG7+dYmz0dgqt+OEnYgP43keaEmks5GSA1xbcSRinpjwsNsPLofXsd3w3iKTGeKQ4x2NH5qX5mNkXMeihlTvXcPQuErE2pl9YUteABmNCZGuGaCEYCZOKh93tCIIgCLD00/dW6A3qz6yzFqVl2PG0/im+08kIRsbvpMjKtsJEHW0Jh6SkLFuW+5SYlMl5PN0B2gVNcjJN2Iw2Ia7jDt2ShYXFTBoCq2ufqGZk3iRaC/Gd6HQAr3gEQYDA6R7U/ITEt+/rs568fenZQlEijYWcDPDagjsJ49SssvuGeCm0HtABP+4S5E9Sz31J/ImN6aV3TTC7L7JqlPsK9U7cddehoHs4P3UaZlRYSGsrtdalxiwjFQ+72xEEQZAmoDtm6yaUlkEQPhltYSiSpe11dbaMoBk/9foNprIyade5a+x6eti9JLUzytIojsb25uXdHsYiL6nJOdaNjb8T66aHyd2RpgZJeMUjCAJM8LQ9BjJTtOJHnb7sy9e+wUqkqyk5NjRiw6S3o6MFE2mu1xbcSRinVj97qlpQWaKPl0PrMevTP2X7WN8FpOLVNTYoTz938CB2Yb8ITG4EmzmvJhFrXWr0MjDnxKwKhxWJp1bBuU8qHna3IwiCIM8Dy3o/nj9lNavxQDJiyWebUSqQMvcfPOqHWZANWOiwkmSCB10d96REsrrhb+IygfHcx49+yQcLiss0ikmku85fxaWENCeS8SZ62x/Cqx1BkCag6WPqZBdqJsonI0VT+Nq36xk3zWpr66h46cCkN3iqsNiP1xbcSRmnXi+5Nxwvh7Yxx8h695S3TYm9lGWVSQ0Xx4dvxsy+yEIT26363TUKuMYBU87D+cnY5S4QcsulBiG5yYGk4mF3O4IgCNIcH380dc3QIYPSWY0HhZwDP0WiVCBFGp81YAOFDGBmNjReU7OnTDVCWFoax9GUlSkpLdcqKLzDRDalqqpGPedGEacV1CAnM2yoXrP3TysrYxHpbc65wcY49VJCOtGCu58vyskgCPIi0951200rNsjKJKdk2fCxX1cISJW9CtqT3s/T/o0vBASMU9MfoYwJF/Y4TJ5toN6bmD7orqzLc08UZXphZv8GJpeWjXRaRyLW6uTzwdjlLgyWX45a2/AfcsdiyQiHjdjdjiAIgrz0HtGhQ8OmDYuDWErL/PubH9dJJA90MfuIIuPdjBSJLNwvaMvKJDLScU9MyuA8judrjqGVBfmC+/WMfOod7iQmIp5njLVpdF9tDQle8QiCPA94X9iNHXGGVvxTZxJ4kZWhpd8Ok90w6c1qP95YcCdhnJpVijruXFDtqFx9fHygv2rHTtWkYs6KObpXUl2O+p/P4TtoeBhXCSUAu9yFQVjBdd+IW5nepOKBzv+nw+2/xcwiCIK8qsBQq04qlkTyYICs7T90aH7xWdAyVuPBUtvFSzftB51LPPsQRQM625d+8l6wr5+jTHb90u6wS7yaYcdiP5IIjOPoYP5KLV1bW1PickEgy0XbB0MUl+JCMp6fn1MIXvUIgjTHjBme1MxTT/x2cQrr90ya+u0s5WSANxbcSRinYoc7dwx79c3abktOz720vkZj+vnDB7ET+29Ay33WUEsiGljY5c4vMJk068JRonpmi0zGboFzBLOLIAjSPJVVj9UVPQfvv++91dRkMDNTu6QrmXY//hixUMg5aWzACQGEO9CV5uPtcGjTN4sDr6cc1Qz/ZeOYjxdMWaOq0qVaFveHtqwMKx13rvrtWlq9JK8zAtXXeytXU6MH8dWlmZk3R1K9N18ll38VFeVqd1frMHm9tmtralXbIQjSZuzGmp3t16+3mEZskChLIrCSqTXQ1G9nKScDvLHgTsI4VVxVpiutrdTCS4EbMwxGHSCp5y66W2D3bfqFTzGzf7N2tMdyEvI90OV+7Oa1yZhR9sBEB0wmVTx9QqzwA93tC43ttmJ2EQRBkNfRJC3TuVPHOlZjfvPtT6tJ6zWT7P68f79EJldU4soBfgGzTFgmvzJ4zqIzkdtMM1KPan63acl0f79xB3r2pFeoZnmvoCkrw0LHvaSkTIurbIqHm03om37G0sqbvd00AAAgAElEQVRIRHrbr2cWUJWVuRRPzjDVy3PsUTBHlNdrvaysSgPveAjC7Xny3rvuu2jFDzshCmC5P7T021nLyQBvLLiTMk6Nu1toi5cCd0DPXVetp5hUvODEU6uTpLcsMbN/AfI960Z7ElkOvjEtdglmlD0wiQSTSSRjYnc7giAI0lKgI/OzT98LZjVe/dNnygs/+fYgyQLx71hsbnefsuQE8iKD3xmQBR3s/161YC4U2LOvH+9xMGT1+Jnve219laGmrONoPyqSZnzaOu6JBIoibi3o3B4z2iSa9Lbn3CiktgIfvDXAbJBUPB8vh8N4h0AQ5HX4+zkeoOUjdOrUJb/6+qfKrPaFln47azkZoH1LfshGa1A814FIF8AUFSgIH3GePlXpX2QuJjCUnHru4JHqZ3W4lOu/eA0yOmGi0Y/zi3166V2T+PtFNphRdkDOYRKJZEzsbkcQBEFaC2tpmYzMm2bfbTvyJWaeHL16qpdiFsgDqz+GDhmUDsV16F4/cnCNU3b68R7RZ3YaQQf79Gluu+W1wP5P7GxHngW5EFrxaeu4c5VNAakYczPDN9YZxlibxpDe9mtpudQazmLjUonpt4PkjpUleeNYBEHkC03NnlIXZysqq6ZA3iWKkXkqTf121nIyQIu6V+x09EVbMuIWcRlIJMGCOykstQYmrbZyC152OXIdiXgg+TMv9vjOg87Tp2N2/2LZSMd1U87+xPmC/PZa7Kc27twnrJA3A5NGU88cOAKTSCTjYnc7giAI0uoX7A4dGr7/btlUR9d5mbR0KP/JdzuOBv/xsXVCUYqVtFFR6VyNWeDw8a/RQzpAV7vgbT2dXN23+hXo/fFvPb1+ebACBLPzFyAT4uI8OiI84gKV5fq0ddy5yqY4OZq3qMNfR6ePGPSJ7959qEtq28vLqzRAOquvtoaEdF7iL5OTk/H3dQ7BKwVBkJYQON1zx6nTCX40YoeHxwRM9LKnvtqGln47H3Iyf34PtOSHbPvqc96w3IqHBqDjrqXSXYqXAnc+NXH4NvpOnlO05CaRB/qh/NQA1wFDzkwbbIZL1v7AV88kTL/7qQLQYucSJ1Kc7VFQWaKv312zALNKl6UJv22A+wzJmDpdu0s+NbX/FrOLIAiCtPoZotNH/MVn7y8LXvn9dhbjNTb+rjT/42+OnI3aZirPer/yBHSv/vLzenuptFRHInkwoKSkQqvkUZnWo7LHGqB9D0XB6ponqiQLjVyBDnUNzR7S3n/807Nn99LemupSrT4akv5/nO/a2hqSP/bpbn8dLTGegy3Dyd48klbBHXTc8/LFhoPf0c0iHZuEbEprug2trIaLQkPPB5LcBzBOJV1wh+7M+Ph0ggV3xwN4lSAI0qL7pKWxSG9Q/9zComLi/h2XEtKdwLcDOulp7kNcXIoLjbh8yMkALSq4Q3cnSGyAXAOXwc7eyXUB40+8FAgcuPbtG/Y7vRtkemRjWml9DRGjkbmiX3ZZaw1K0O1OTiNelvMbbD5udWD0kRBOL13/+V1px/X4+ZvH+izGs5YeJ4oyvXZlXZ5LOu52W78FIOOEGUYQBGlJoeE/xFYYQeFRHnIy4z2PHZGnL/klXaHbadoEfGRt+PanVcFfzFqKZ6Tw6fDHx99A3b4F8M+bfhb0U0tKyrWeNTQqQYH+r+ukvE+TripcM3X19S9orJY+qtB6Uv/slbqrXTp3rNPopf7CxzMUzZs+SnV0+tyGf2tqqkuVO3eu03ru7xAyODhaRMEkBngx0IgfH3/dkUbB/VJCmiOX329tt+FoC0PiBXcwToVVQURjZtw0q3pco04iFsiSteTegCAI0sS7k533rlq7byPpuNDUER4RO+2D2b5UmxETKb0v8yEnA7T4w8iur76Ia8FddLfQDgvu5NBR7SHZ6zhllvepfUS0mqqfPVX1P7v/eKLfYisoOCt6fifrjzgGsj3S2secPvr33kic9ZWF69coS0IHSXW5zqyYo3tJx/XTNw4FPX/MMIIgSMu4/4CcyeQ/C4eyzOYNnwSxlJbZvffXJY4OFlGo+ytfQMc4rJqA/8YinPygqtKl2sbGNDrmwlUPGvFBxx2MZ0nHvXSZWxe3na3ZmdZM3oDePel9oGGcSrI70993XAheIQiCtAY/33EHvvn2p9U0JnHDImIDaBbcq2ufqCanZBPXb+dLTgZo39IfBB13roOhcSp5oCC4wMiG2FLllIfFZl8nn/kKM9uunbJSx7plIxw56+TDRMa+nKSZmFE6zI45tofUKo8mwCh1sw2uSkAQBEG40yQtw3LMxUs37YcPF8y+sGE1CYMIG5dxlhG0YicmZtiBzAnpuHGiVFcuv+/uah3amp8HGQOQSiC5DzSMU0UXueWlCVj14D7eJgyvDgRBWkPPnmqlbm5jQmnEzrlRZJKdQ36isonU5Bxr6KQnHZcvORmgxQV3EjruYM4prizTxcuALBusvZaC5A+peOtSopclSW9ZYmbbtZtjaL1bS6UbZ52qLddFixp+J3/zUHS2posWninOdSUdF0yJYQUJZhhBEAQhAUjLWI4yErEaDzS/V6zcta2tv39fWqKj6MdMTU2V+spE0GjHqwNxGTf6RIcOdFYXg7wJyJyQjJmalmvJRTYFislt6VgfbUX2HgrX3y3xPX1S8crKqjTS0vOIfEPb2ZmdgcIZXh0IbZ7WP1PGLMgX09913U0rduiv0TNoxb6UQM5w+nn4kpMBWlxwb9Jx5zpg3P2btngJkAU6sQ+OmzZduYMSEXMi0B0Pij6yv64Bb76Q27mGo3dxjSOpqdQ5e/uGC56t5ACJq2WJketIx7XsMyBpvtGYHZhhBEEQhCQgLaOiws4XBPSOz55L9GrTu2ADNgmoqXWtxLMWYQEUVk1NDZJoxU9ISHcUUjwoJrfFVNfSgvykJRinkoolupRKTk5molMIXhkIC8BcGbMgX5ibGcaTXhHURFh4bECTdwxpwJiVdEw+5WSA9q35YdBx5/wgultoh5cAeQx79c3aYuOziFS83IqHBssvR67FzLZrt9DYbitIjHCNE5J3JRCzSQaYDJp+7uDBusYGojd7pX+1b9jjMHk2ZhhBEIRfHleTMZ0TEnxIyyxdvnUvdF3iGSVcaMh9ILKHhysdCQCAdNdg7MUUTqtL3cbbtGlfrSyNiBdN0q6Tk5URxZGRk4ECEQ3NegRBFAcwT6URF1YGxcQmu5OOW1JSpgWSNaTj8iknA7Su4I467oJmjpH1bu+BRsQ0ALdkxC0SSfB4weqOBcPHcNbJjyjM8pbWVuIMMokCQsKJDVllUkPScZeZOa2DySvMMIIgSOupJ2h0WlFVqy6POWItLQMfRp98tmk/n/tcLHmgK4vHSk2tKxOze+n9UoWX70HatXNwMI+iFTstLdeSVEcieEOkcdA+B+kcJ3uLNu0rDR33dEJyOzBxFhNzhYjxrYebTWhbVgAgCII0AeapIN9FI/YvoecDSce8dPm6I41t5VNOBmhVwZ2UjntBZYk+XgJ02O/4bpBO1+7EtKeDLvy8v/oZGjrNN7LewVWyB6R6DuQmz8CzlBsgzbM9M34B6bj63TUKvhw5bg1mGEEQpG2UPMRlyS2BtbRMzIWrHgcPn5qDmW8d3RlouAOPcAUC8gcDdfsWDB0yKJ1G7Pqnz5STkjKJyLpevHjNhYup3WjL4SIuk1mkddwzM26akVhlkpycbcNF1/55fLzsDuMVgSAIF0CqzNnFioohtyguxRU60knGlEc5GaBVBXdSOu4xd/Id8RKgAxyjg+OmTwdpDBLxYILko4u/blP0vGqpdJdOeWcE59mxXVmX5+JZ2nZK62o0AmN+DqERe4/9lNmg2Y9ZRhAEQWjCh7TM6rV7N0pktNOcL9QYFdxra5+oYrYRwNFhVCSt2KRkZURxyZxkU1zGcSsAkdZxh8mI7GzuMgaiuGtE9Nt1B2gXgP6yIp33xfhsQhAqTJ44LoRGXJh0PR4aQ7SRNE6U4kp6O/mWkwHat/YXSOi4n7mT64qnPz1A+gekMUjFC7lxNTDqVra7oud1zjArzm7PMIGBMj1tA1Za+ETuDZfWPibeQRk4xCKEhGQWgiAIgrQE1tIytbV1qh9+vO5ISzs5yyse91L0Y8RKUkYieTAArwgEcB8/OoxWbNFFMvri0THJnGRTxo2zPMHpO9fWjLi2eUpKjjXXGKfOXPIjsS0+XvaH8EpAWEG6S/mF94iySly9xTO2tiPP9uvXW0wj9i9h0YGkYuXliw1pmPfyLScDtL7gTqAoFS3JcwLTQ7wE6PGVuevXNloDic2OzxX9sgu6ixU5p5ZaA5MMe2px1vfenZ2Ay7pbScPvvyt5Ru49GS+9ZUM6tkbnrqUbrL2WYpYRBEGEg6RYqivv+8haWiYtPc/y+53HP2/Jz9ZU12LXdbu/liPTHqNKTv0KkNYzbKheupZWLwmN2Hn5tw25FteuZ9w041IUMTZ6O6Wvtgan/YOJMNLSO9ezuOm43xLf0xffvk9EMtfH2wHlZBBm1NfTq8nV1ODqLSHw3rvuu2jELSwqNkhMyrAjESsuLtWF9PYJQU4GaHXBnYSOe/Wzp6oxxSgrQxOl9u0bQFpGtWMnIh9ykppKnXmiYzsVPa9zjaw537AiijK9FX3yojVAsX3quZAjtAyXt4z1WaSh3LUUM40gCMIN6KLGLLQcPqRlNm09tPI6IZNARaA7gy73hyXofYD8DRhm0oot4ljUiLlwhdOKZ65yMk2Q1nFPS7thyeX3T0ZenExiO8zMhsaDlj9eBQiCkMLfz/EAmFXTiP3Lr2RkZUhJnj2PEORkgFYX3EEj3Kx3/xSuA0cUZXjj6U8X3e49xetGexL7kAstyPALK7juq8g5nfa22WGu5ql1jQ3KJ4oyvfAMbRlB0Yf3w7lHI7Zrf4Mz0wabYScJgiAIAR7h8uFWw1paBnQ3F36y8WA1Q93wx1U1MtvBraWlIaE9RvE9+V/NgbQcR3sLejrul69zKmrExHKTk3Fx5iYn04SlhTHReyZ0p5dxMC+OvUhGe3iilwPKySAIQhRNzZ5SO1uzMzRin/xNNKWK4zteff1T5cSkTDvS2yYEORmgfVt+yUN3KOcXgcjbOR54+tNnvtGYHSSOVxOzLhzdK6ku11HUfMKEEwnz1KP5qVPw7Hwziy+Gbz6UnxpAIzZMnOy0mzQPs4wgCCI84AVcUfaVtbQMLANe/03IWlbjVT2W3YK7Zu8eUtpj3BaTkaJA5ANYAq/Wjc7Kivj4tncR3rtfqpOR2fbVMWAGOvgd3SwS+2FFQSYgOSXbuq15SUnJ4Sx5CR2o7uNtwvAKQFjyAFdYKQST/MaFUHlXf/pM+cTJOE4rfJKSMm0hDsntEoqcDNCmgrv7AMMorgOD8WGS9JYlnv702WnnP0+9UxciL24VT5+ozxMdV2hpGRLmqaK7hXbS2kp8wL2G5ZdPrt2SEbeIVvzVo9yDYRUIZhpBEER4KJLMBh/SMiE/nVwQHftqeYi6evRaAvpo0i+4F0se6GKmkSZgCbyj4ygqXe6gv56dU2jSlt+Nu5jCSY7GyZFc5z4NHffklOw2Fc1Pn04gsvrb6Y9j3rOnGkpcIkx5SrG5oUqGV7fJG87jLE/Q8qQ5+svZWVx+Pzr2KvFGbKHIyQBtKrib9emfotO1O+clllG3b7jj6c/gQ061h2Svw5RZpOJFinM8dmcqrvEnmKdylVVq+M/vSsfy0ybj2dk8W9NFC9ddi6FWfAApmYUmtlsx0wiCIORobGxUwiy0DdbSMsAnSzaHvMpEkau5oryg3Ye+pEx5eZUGFiaQ53GyN6cmKxMXd61NhfOTkZc4rc51drI6QXI/SOu4X21jwf3M+ctEZHLdxtPT7kcQPqisqsbnmkCA4vMkX6cQGrFh5RMXb6BL8enE9duFIicDtG/rL3oMHMb5RSCiEHXcWeGrPzzMT9+Y2IN8yeUTG8WVZbqKms9ZQyz3co0RWnDdD8/Ml4HJnEXxEVtoxddV6yk+6DJ9OhgLY7YRBEHIIZU+0sEstB3W0jJQ6F26/Ls9mPlXo9NfS8xinGIJ6rgjf+PgaBHVuVPHOhqx26I3Dp4PV5Oz2iybAp2V5ubD4knuh+lwgySS8XJyikxaK2UGuu9t7Yx/Hrjvu7tao5wMwpyaJ0+6YhYUA38/pwO0Yh87fnZmW35PInmgCzKHJLdFSHIyQJsL7t4DjTi7jGeVSQ0LKktQt5ARO+0mzyOxMuHPF69nT1WDLvy8X1FzOc1g5GHVjp04fRTHS2/ZKLIefnOAKe+Ci2HbacWHYxbuNtNHQ7krLtlEEAQRMFJpqcI9H0Fa5tOF01ayHDPmwlWPAz9Fzqc9jqx2cPfp0+sui3Hybt4Zhlc98r/3VZUu1RbmhvE0YkOBuLWmyefOJ3lx0dgFwz7Sy/utLI2IFlRg/zIy81vVpXn2/GUvMKLmOraL8+iIzp071eGZj7Cm/FEVmt0rCOChYWoyOIlG7LDwCwGtfa4AsXGpLqS3RUhyMkCbC+62/fTjuBYcgahb2SgrwwgoMu6ymzSXVDzR3QK7b6/FfqqQL8IdlasDBptxdpI/nJ86Dc/MvzhRlOk15eyBoyC3Q2uM7ba+C0w0+qVjthEEQYQNiSKGLPL++95baX0QvYpV/96zsaDwjgHNMapkdGn5Wzq9xSzGyWxloQ+Rf8a7WlORGIF7a0J8umNrfufU6XhOq3Jdna0iSO+HpmZPqd6g/rkkYyYn32iVceovYdGBJMad5OsYgmc8Im88Rqk0weHvO47Kvaa2tk41PDy21XWtc4QkuZ5HSHIyQJsL7spKHeucdAZHc92AiFtZKCvDEPeBw6JmDRm1l1S84CtRq3PLpQaKmMuZQ6z2cY1xND9tCp6V7drF3y+yCTh/8BDNYvsCI5vtMwxGHcBsIwiCkKeeovGWIgFdOZs2LA6iJSfR7LF7+kx5/sffHGl4ToO/9FEFari3+6uop9atawXtcdI56J8i8omjg0UUrdhxl1JbLCsDXYsiUetlaJqAe9nYsSPO0tgP0jruiVeu27X0Z+/dL9VJScnhLCejqdFDKiT5A0SxqK2tV6UVu+oxFtyFhpen7TFa75etNU+F74bEpEw7ktsgNDkZoD2XX/bWM+Q8Wx1/r8imou4JXowM2TzWZzHoWJOIVdfYoDw75phC6n+CebB+d40CTh9YpXdNFF1WJkl6y3L8b7tOg0wRrTFstAbGbx4zcTFe/QiCIHQoKSknXqCFgoYi5lJf763czz59L5jlmDk3ikzWrd+/tunPT+qf4QTKf9HV7VtAe4z8vNuGmGnkefpqa0iGDhlEZVXmhVYU0LnKyYA0Dkjk0NgPSwuyBfdraXmWLf3Z06cTfEmM6TVh7FEhyR8gisWjsgqUlFEg1NS6Vji7kF9xBLTWPDUpKdOWy7OlOYQmJwNwKri76xpynnmHjtao2ygrwxKQQ9nv8G6Q0r/ImEaCFvmOzEvzFTGXU94ZwXnJStStHIU9/2F1hM+pH8NpFtu1VLpJj7sF+qNJKoIgiGzx+3Md14oGSMsYG72dwnLM3Xt/XRKfkOZII3Zdfb3MFvAH6GpTL7hDJ+At8T30tUJewGWcJZXCyN27D3VbKiPFVU7GZRyd4g5AWscdrsPsnEKTlvzsL2HnA0mM6eFuewzPdEReaYuuN0KXyRPHhdCK3Rrz1OjYqx6kxxeanAzAqeAOmuDQOcp1I0ILrvvhqc8WOx190SITuy2k4gUnnlqtiJ3a7gOGcJ50iryd7aGI5yAU2+3Dd8RKax9TW7YOk0rHxwf5a6l0l+JVjyAIgsgK0KHzzdqPZ3fowHayePHSTSFlZeRN1EpKZFeixtBAj4n3S0pKtjWe+cjzODqMoiYrc+FC8hsbfrjKyfy1D+bU9oGGjntSUpbtm34GJitgVRDXsXQHaBeMNDVIwjMd4Qva8nEVZWjKKjSsbUxitLR6SWjEBvPUqhZq94viuD1b/okQ5WSA9lwDeAwaFsk1RqQ426O0rgYvRsasGjV+hYF6byIvKRVPn6jPEx3fqWg5tNQamKTTtTunG1Z0cb5TXYNiLd3+s7M96sdwmsV2YMtYn0U22oPi8WpHEAShywMKkjLFkge6ipzTYUP10j+eP2U1yzGl0kc6n32xdc8DBZXzaQ49PZ1cFuNcunzdCbONPM9w47dTaBVGRBevvbHYwVVOBiRxdHT6iGnmyHQE2YL11dSsN+qy/xoRN43EWJ4edkfxLEf4BOXjFA9o6PCi1An+p3lqxJvNU2HSUnz7PtFVfUKUkwE4F9y9Bhqe4BoDZGWO3bw2GU9/toDx7RHXGVNJSctEinM8wgqu+ypaHv30TEK5/D7o4McU5zsqSr7gHDH/ZVNybsVDqma7gUMsQuYbjdmBVzqCIAh9nqJpKhU+/mjqGtIdnG/i7LlE76vJWTaY/b8wMno7lcU48fFpWHBHXsLeduQZGnHhGn+T3EN4eEwAlzEcHUZF0s7PaAtDEcl4yclvNkI9HnYukMRYE71tD+MZjvBJPWW5t0fY4S5I/P2cDtCKffDnqLlv+pmWrLBqLUKUkwE4F9wNemjlcjWOBA7lpgTgqc8eE41+6cHm44h1T82N/WWXopng+r49PIxrDEWQlWn4/Xel5ZdPrvU7sz+UpmZ703m9bezEj/AKRxAEkV1qnjzpqug5gG6dbzcsDmItLUPayKqkpLyPrB4DMK9U69a1gvY4JaXlWi3Vj0YUB2dnOhrocI0nXcmwffU1W6Z1KSGd0yQQTTmZJqwISwjAdfg6ffu4uFQXWAnEdRzo/geDbDzD27XrqESvK7Wh8T9KmOHXnO8Py6muNq9FDXdBMvgd3SxaPkF5+bcNE5My7F73M+cvkNVvF6qcDNCeRBDvQcacXwSSHty2LKgsQbMgHvjSzGWNZZ8BRJbjldbXaCxOCN+sSPkDyRKusjKRt+S74A6SUeN/23l63bWYZbTH0ujctTR8/EwfMAfGqxtBEIQN5RWPexGP+Qg7owDQ+J0V5L1FlvehXsZXQAw3foeJgW1CQrojnvHI81iOMo7r3KljHY3Y584ler/q7347eWlyY+PvbS5WQgGEhT45SNaQlt1JfI2O+7FfyZilegm0G5MPtLQ0JLRi33+A8mh80tjY2AGzIEwm+Y4LoRX74JFTc171d6DxnpySTXQVpVDlZAAiBfdpg0cSWQ51IDd5Bp767FFq375hv9PUIOUOSkRe5kJuXA0USQrsFCmHXGVlJDWVOlmP7hnKY25SHhSbmR75Ji1acpP6UmmQRzrkHBCg272nGK9sBEEQdtRU12IXE0UWLZr2db9+vfHZxhMmJmyMDSNPx/thtpHnUVXpUm1laSSiETs2LvWVOu6/hHErLDs60peTacLcfBhRv6bEq813Z4Kh9Lmzr56kaA3e3vYoJ4PwDm2vnPvoByNYPD3GHqO1ehLuk7BKqrm/E8WluHCZzG2OCQKewCRScAf5BviHa5xDeSgrwxcgDbRylOtKUvGCLvy8X5GMQEnIykTdznGXt7zsy0maaRW6OREmFFiMt9Ji/EqXAUPO4hWNIAiCH4LyBBTdNm/4JEhWt7+qqlam5QZHjHiHScE9LT3P8pb4Hq74RV7AedxoKrIyII2Sly9+qeEHpI1ybhRxkjeyHzPiDKv8WFkYi0jGS0rMtGvu/4eGnZ9BQm7LzGxoPEhV4ZmNIAhf9OypVmpna0blPg33yeOhMc02U0fHJiuMnAzQnlSggHfMDnGNIa4q042/X4QmTTzxqYnDtyQmTpqO5Yorp1cpSu5IyMqIiuVnVQBMtgTF/Lx/1oWje8EUmcWYi4xtt3xpPm4NXskIgiDsKS9H+RfaWFkai6ZOdt4ri9teWfVYpgvuFiMNE1iNdTLy4mQ825HnsbcdSa2Z5Oy5JK9//r+jv5ybySUmdE06OFpEMbs+zYcSvT5fpeP+87Fzs0jE9/awQzmZ59DW1sTJB54oLaGr4Y6NE8Jmgie9zvD9B39b0NDY+EIdCP4siktxJTmOkOVkAGIF98nvmBwDOQeucQ7kXEFZGZ4AaZk99lNmkziOwJZ00SKQE1GU/Lm+ZcBphjBeKh+TTeLKMt0xv353CaSFWI0JxfbNY30W41WMIAjCD9U15I2xyiseYxH/HwQvn72UtF4x8mbU1LpW6A3qz8Tg8HgYGY1oRH4AnfLB7wzIohE79uKLxQ/wW/g1/AKnVeejLYeLYFUOq/yAASBpY+O4uDSXF77TEtIcC4uKDbjGhckIkHLAs/q5nFA0TX1cVa2OGX41pA3SEdnC3dU6TEWFju8drKA6d/7FCd3k5Gwb0g06EwTuh0Gs4K6j2kNi109PxDVOaGGGnyJJkQgNsz79UxaZ2BEx5oLO5tmxR/c0/P67QriDT3lnBKeLvfrZU9X00rsmspyDs7dvuJj/8m1yykN2Ey2BQyxCsNiOIAgif1TX1qEu/D+Awu/X/2/uIlnb7tJHFVqynnt7OzYSGeLb9/UTk5rXkEYUF0d7OproaWm5lqBN3vTn307GTa56XMOpSGk3lp2cTBNWVmRlZf6p4x5yMHIBibgwGQFSDnhG/00v9W7U8lFZiQX3V/H8dU+L4nsluphp4dK5c6c6N7cxobTiHzp8au7zf465cJWohLKmRg+pkOVkgPYkgwUYcJeVqXj6RD1KLH9a1rLEqlHjV+h31yggEQsKyFvT4xYqQt6stQclcDWejZPctJXV/V+TfP5Lj8g9kaX1Ncw6Ev30jUNhVQZetQiCIPwifUDeGAs705rHzdU6zG28dagsbfOTetlvprEkrBP9Or7f9cvneKb/9904LtWluvaJwk++2dmOoCIrA+Z1okup/+vmJlFYdnAwj2KdnxHDyRobJyZm2DXJIUgkD3SjY64Q0R329BiDcjL/gFaHLVCLE/evyQ3eV5F27Xy97A7Rin0pIc3peXmus65RFdQAACAASURBVOfJmE434TVh7FEhy8kARAvuvnrDw7gWHAE0T+UXZaWOdSSLmMFXolYXVJboK0LeLLV0Ob3sie4W2snaflc/q1P1jPzhJBxnVnrtABTbjzgHTgUpJLxqEQRB+OVZ43+I3/+xM+3VfBU8ZzFpCQWaNDY0yvxqR2sbkxiQg2AxlujiNVcwrlT08/yHPWGfBgStODM9cMVpkDpR5FyYmw+Lp1WYjL7wVzH5esZNs4zMm5xWqfbr11usr/dWLuv8jLI0ItrlCF3+kA/4730hEQthYoJrTLh/uIwbfQKfYC+iqdlTSiv2o7JKlKZ7BQ8o67cDkmKpLmZa2ECHOE2pwgMHo+bDv6HwDiv4SMaGBhSh55dowV21o3K1n95wzh03keJsD2ltpRae/vxhp6MvmjVkFBFjrrrGBuXZF47tUYi8cZRVEt2VLePUrEf3DE2PbkyLFOd4sBwXi+0IgiDCoramlninFHamvZq+2hqS4C9mLpGV7b1/v0RH1nMOmtQgB8FqvL0hvy1U1PMbOotXrNy5bdXafRvhzykpOTZLl3+3R5Gveejis7MdSUWqJU6U6gpd3N/v5r6ywsHO7Awf+TEcOii9c6eOdSRjxlxIdoci0S/HowNJxHNyHBWJcjIv01WVnt6/VFqqgxlunqcMJjHxPU42ni0ebjbUVk3+Eno+EO6jv0bETSMZFyYJzM0M44We3/akAwYM5i4rA12y+7KvzsTTn182WHsv1enanchsFxSS9+Ukyf0xdXnLgNNyT5BUkhUd98N5KdOsQrckFlSWMl29gMV2BEEQ4UFDCxQ7017P1Mmu+yxHGYkwE+xwtLeIZDVWeHhMgCJ2uYN8TNDMr06G/HTyBWmT8IgLAft+PLFQkc8/u7F0Cu7QzW01NujWqdMJflxjOTiYR/KRG9AiNjJ+O4VkzG07jgTbj5t7g6umfRNu421C2yEvod2n111asWFlAgutclnk/oNH/WiPge9xsoHfRKcDtGLDpAvcR+F+SjIuzUkCkhAvuDv2HxyjpdKN87Kg7ZkXFyiK2aZQUVfuUrFlzERixlxL4k9slFSXy/Uss1nvASmqHTtxmqUXuo47yAONP7HrdMD5Q4fA6JXpwwCL7QiCIArD46oalJR5A2tXz59HuquTBvLSZejibMlMDgIKRcErd25TpPP5lvievseERckgqdPc369au2djk8yHImI71uyskLcP7kVjRpvG8DW+xUjhdjtCbpzHWaKcTDNoaqpLaca/Ly3BLvfmnjHPGqjX2srLcbJDFhg2VC9dd4B2gSxtsyzIyQDEC+5QCJuiP4KzGYi09rFWWGG6L57+/OKrPzwMipwkYkH39tKE3zbIc77g/LfRGsTpZS/lYbEgPyTqGp4pf3319FdGP6/PPFOc68p6fCy2IwiCCBcaBVVSXYXyDGglf7xg6mqhb+czOdBwB3R0+oiNjch20b72nTAlx+bXE7HTFOFcBnNUD6+FyYVFxQav+hmYhFj4ycaDiqrnDlJSg98ZkCXU7bMwN4yHTnO+xh9hOjhJqLmxszM7A7JU+NR6md6avagW3G/fkephll+mWPJAl/YY0N3cZD6MCBtPDzuZMXSWFTkZoD2NoDOGWhBZkrAlPW4Rnvr8s9nGZ7F6py5EjLmO3kybElOc5yjP+bLrry/i8vtClJQ5e/uGi9GR9Zkrr55dCZr8rMfHYjuCIIiwoVVQrcIu9zfy4Tz/9UIuwgHy1OU20cvhEMvx1q7/cZ08SyJAMWbTlkNfgTlqSybZoCC/4dufVinq9e5oPypSqNtmN3bEGT7Ht7I0jhNqblBO5tWoqXWtoGUIDGRlF5lgll+mvp7NN730Puroy8S7jbftYVnZVlmRkwGoFNxNNPqlG/bU4vzin/TgtqWs6FnLMzqqPSQbbbyIGXMtiAvbLs9yQbZ99Ti97GWVSQ2rnwnDYERcWabrE7Uv3PXk7jOstdqbwGI7giCI8KFVUK2qqsaC+xsAw6v1axfO7tBBuM9JeTJOGz/eOoxlrqXSRzoLP/nmoDyeuyUlZVrvBf6/05u/+3lla35v7/6IRWDCpojXu53tCMHKyjg4mEfxOT4UbvUG9c8VWl5QTubNaGtpSmjFTk7JssEMv8zDR+VaLMZ5hBr6MgGsmBw6ZFC6LGwrTc150rSnFXjWUMu9JOLsuH5xPp7+/DNzqOU+u37cOrebyK14aPBt+oVP5TVXJHTc00vv8TrRBBMi669Ff250dF1mxK1Mb95uplhsRxAEkQloFVQflLD5IJR1RpoaJE2f5r5LyNsIxVV5yDXIeoyxNolmOSZomn+/8/jn8nTORsdecXd0/TDzUkKaU2t/F6Rlvl71w2ZFvNbNzYfF0+wGbiv9+vUWQ8GG7+2wMB8iOJkBlJN5M7q69PSjk1OybcCMGbP8Io8ZNTRUlFf1wmzLBu4ysBIHtOZBc15Wckqt4D7DYNQBrkVH4FB+akBpXQ3OigmAPQ6TZyt3UCKiy7c6+VywvBqoktBxT31wZyQf2w6F9gO5V2YMOfzvG8suR65jbYr6PFhsRxAEkQ1oyr48VVCt5raw9JP3VoCupVC3r77+mdwcy4B32U9ufLPpwGrQOZf13EHha8XKnduCZn4dyWVlDExCJCZl2CnadQ4rWqwsjUVC2y4HO7MzQtgOUxMDwem4o5zMmxlIseAOE3QnT8ZNFuK703fbj37J1/iVlWwK7g/lZLJdEfDzFX7nuCxpzQPUCu7qyl0qAg0sQrjGAb3ofTmJM/H05x/97poFq0e5BxN52X72VFWeDVRdBxhweulkbZz6fKE9MPpICF/yMU2stHBZedz1fX8stiMIgggfmrIvEsmDAZjhlgFyCiuWz1oi1O27Ly2Rm0YLR0eLKNaTG1A0+mD+mlBZlkeAArmTy7zMkJ9OLiARb9PWw18p4rXuaG8hOB13G2vTaCFsxwhTgytCygvKybQM3bf6FdCMH/JT5AIh7W9qWq6ls/v8tA2bflp9PPT8DD62gYbZffPP/keo4S4jwAo+M7OhgjYjdR8/OkyWctqeZvD5xjY7SMTZfv3SAnnW/JYlFprYbjXr3T+FRCwwUBVJCuzkMU+2Om9z0nFn5V0gtEI7rIqJdJ/t8ZXF+K/xakMQBJENaigu1a6To65oFkzwtD3Gt3Hhq6ivf9ZZXvIMXcbTeehyB+mmgMD/d1rWiu5g+rr4s837J727LPbu3Ye6pOImXcm0g8KVol3nNtYmMULaHvA0GDtWGNryg9/RzVLr1rVCKLlBOZmWATIRNOPn3CgyARkr/p+DT5W/+fbgKt9JSy413QvXfhOyjg+D+JoaNt4q5RWVqFYhQ3i4jhHsihzw6JAlORmAasHdoIdWrmt/A84v/ZKaSp0TRZleePoL4AOjffuGPQ5TZiv9i0zn8UcXQ7fJ42SKYU/tLC45yi1/aFDXQK/IILRC+5/3C/XeucmTPjF3HzgsCq80BEEQ2aGMoiFWCS5FbjX/t/LDj6CrUmjbdf9+qVx1uQW+57mDjzw3Fd1PnUnwFXqOGhoblQ4ePjVnjP3Mm6Gh5wNpjPHD3rBPFe0aH6jbtwA004WyPaamBklCKiqPMB0sGFkZlJNpGUZGb6fSHmPd+pB1cE/iax9hotTF/aO0bTuOBMOKpf+955SWa+39MXwh6+2BcVmMg148sgUYwwt12yZ62x+StXy2pz3AAuMx20nE2ZIuWoSnvzAw0eiXvsCIzHHNKpMa7siQP2NcmJgw7KWd1eYPlP/8rgTmsqS3C4r4Qiu0Ax66QyOTJ39iDpN0eIUhCILIFjVPnnSlFbu84jF2RrUSKMZ9MNtvo9C2q6qqVl2e8gwSPtMD3HgxqoWi+5wP14RCpySfBaTXAd2kru4L0r5YsX1X1WN63ZtnzyV6K+LEnFA004Exo02ihZQboei4Q+e/3ZiRZ9shb6RnT7XSHj3USmmOkZd/2/DHHyOYF7bv3S/V+fiTjQcnTvrsUmFRcbPf9/v2n1jEssudZqPEP5G3yXZ5R8iyMp4eY4/JWj6pF9yhWxU6V7nGiZfesmEls4G8ma8sXL/WUukmJRFr5dWzK6W1lXL3omzYUyuLy+8XVpTqkdqW3HKpAWjm99+/slhIhfY/j7+Fy8qTHh94qnZUxuWWCIIgMkj5I3ofbtW1daqY4dazcMHkNULqgAUqqx6ry1ueP5zjv57P1QTQKTk14IvzBYV3DISSE9Bp95/6eSyYokKBi/Z40CkaHhE7TdGucaFopgO2tmaCKiqPNB0iiIL7aMvhIigk4xOpZYwwpT9R8u9v9q+7nnGTiVcaTAR+vXr35rH2M2+GR1wIeN3PwqTkocOn5rB7Hlczex5jwV32EKKszNAhg9KhoUTWctmexSALhpPphv76ypmv8PQXBmCKu9Hai4gxV8XTJ+pL4+XPQNVEQ4eTvhTIynD5fehmP3bz2mT78O2xQw6vu7Ex7cKS0voawXQKol47giCIfECzc1lSLNXFDLeezp071X29Yo6gVocW3yuRu2OpqdlTyleXexOgY+7k+mHm2vUha6sp+im8DuiyP3su0cvda2Ey6LTDNrEcPywiNkDRrnGb0cLQcQe99OHGb6cIKTemAjFO9fQYcxSfRi3H2FCf+nkEE3RBs1aepDlJCbG/WLF9p9WYoFt7fzyxqP5py2Rif/o5ai6rXLMyTAVI+nYgbBCirIyXh61M3k+ZLEGcYWB+IDjx1GoorHKJE3Er0xu63EHSBC8D/pk22OzwrsyEubD6gGusQ/mpAXOMrHfbaA+Kl5f8GPbi1uEOXelt/b19OVdnhuRcCRRSgf15YNVLuPv7PighgyAIIvvQ7Fzmw0hMXnBxtjoBBqqii9dchbA9jxl21LEEutwPHjo1t6VFFRpAEen73b8sOx52PnDKZNe9Qe+574DJANrjglRCaFj0jIM/R82VSh/x1sUIhoi3xPf0ZbH7ra2ApJGpyeCktPQ8Xk1jrayMRWAiLLTcgLneq+Q7WAByMi7jRp/AJ1HLYbUyAbTLJ01dHrtn9wqfkYS66mGy8+TJuMm/RsQGtHXCEQrTsELIytJYRDsH5RWPe7E8ttDtz+KZhJChSVYmJSVHMAbt3t72h2Uxl0wK7iAVEWhgEbIlI45zpw10uYe7z/TBy0AY7LT3n2d6dGMaaI5zjfVRXNi25EmfmoP+uVy8NPR5i5P5S2s03Kuf1alGiXPcd2Vdniu6W2An5LyAXvsRl/emooQMgiCIfFD6qIKaLFylnBZpWQEGqvbjPrjxvEEbXzx8KJ8621BE+HjB1NUbNv20mu9tgUISyMx8v+vYMjc3m1AwGLMcZRxH0tBSInmgGxuX6vJbZNwU1p3sr+P06QTfD+f5r1ek69vGekQ03wV32zEjzwgxN8bGb6fwWXAHI1mUk2nlt7P50ASYqGDxvIJ7pe+kJZemT3Pf9fH8yWvaUgzOzik0SUrKso2JvepxNTnLhsSka/iJC9NYFNwrK9lKvN2RPNTFgrtsAbIyQim4Q/EfJgFkMY/MXr7nD7fZQaLgjl3uwsKwV98sMFAlcWzhuO7LTpwJne7ykBsN5a6lGp27lra1y7yg4vU666B7HyW+4R5RlOEdXZzvVNfYoCz0nIBeO0rIIMj/b+9+4GLO9v+BM02M9N/ElElTTTX6X8KkqBSFUv7n32KXZReLxV4urlxcdrG02GWXK7u1uMuqpVVLK4SsqK1oMFEaNZT+qfRnys+xv+53r/Wnms/MfGbm9Xw85oHUmc85n/OZmd6f93kfAM3ytEFxmb1YiiwfkvE7d/b4rST7WdXH8qi0QmM3tpw7Z+w2kl1eUFhCiz1ySMDqxInzkeRBaswP6O+cRlY72PC5IoEd7waX26ugLe2QUjH5+UWCG3n33DIybvj+dvWGrzLqsndE2qWsIG0LuA/2cUshN1hUeQy+PvQobfOyfu6C9LfVzVYkOtZApjtyY5DcqFBWkI+8TsZ8e2LBd3GJ80i9/cCAASf5tlxRb65ZIatr1xd7c9Q3NLBKSys5JCO8pLiMW3C/mJ97M9/95s277nUK2GMm6Zf0iM82dZqj6L4ru676w4ePe2OGq5ehQ/snRm3Yu4MOx6LOr6dKC7jzjczEJLP1ZMHNUHnbQpY7vZANVA+Lr0dK657I/YvUissnN4+zcz9GgtWaMDbuZhZZZyR3gjrys6QEEwmqc/SM/ns3mJSLOSbOGZdUeDOEilI+SvsApdul5vDwGZFkE2VcMQAA6oEska4sr2aXSEu5VU9qjcjmqCXSx9zq6hrjx5VP2A+f/8JGMtDF+YrNIvQPmptnZmYsJdmCet31aiwtzAqMDA0qDQ31Ks3N2ZJuet1qe5mZSM2eP0jtcpy5/zX/gwmfkmAwyehT5XFo8s0TMu/W/uP9xWSjULodG8m6vHAxM4g8Wr+mp8eq4VlZiEnpDfJvc3MziQ7zj7IgDSTA9KiCUyR5yCN1fumwOqItXmSYNjSytOk1gGwySW6oqKqcEdmYma5lfNzdHVRax50Eq/Du034BQ7ySlJ1VS17jXn6NVJWKimr2tUyRsKOlbshrYGlpBefh80dNda3Ro9JyDrlhUFVda/zocQWn7NHjF3/Pz5codfXHilU793zz7+OL9Z+/97B79pD2MDYoMzTUrzTn9JCQP5+/F1VxOGyJ0fO/Y2UIPZDXdrJRKSnZpsrjIKtexqhpORlCqR+gSCY0FQF3ZLnTS+sGqtNOx8bK2xYJMq+8+NOmbwInz9GEsXE2tcjtaMCdEJWXCsRVj/kJd3PDSSa7uKqMr25j4MuxTjswbMosctMNVwsAgHr4bNt361WdOdmKlAVoa2mAhfMnb/hk6fQ1OIP/hwRVly+dvvqTlV/sU/WxaHId16CAgYlhYUMOk6xyuh8rycxU9S/RVCNB5+uZIqEyyjHQBbm5QFYvqCpQ6O3tRtuxdnKyyVLVzQgSpNKm/QSoFBY65AgdynOp0pX0HL+OBNwPHUl6jw7v869CbiS09UYKuZGXfiHGGleD6o0a4XtU1Z8VyOoTdb4Jw1DmkwVb9U2mKkhOstxxCdAH2UCVBFapaGtf3pXZ6dJ7Qk0YF/eeFnLN92EJX54efOyLC1szf12mbsF2Uk4nJmjyzAvjFw1GsB0AQL2UPCzj4rg1x4Txww462Fvlqvo4iksea/T52bD2w4UmJsjOU5WrGTd9tK3PvoPcz6jquQf7qO6534Zs5OrgwFPJa17wMGE8rsaOac2q1eYx+O3ajQ5l+BdJSnma0P8yDS4/p26ChwtVvvFzWOjgw+o8hgxlP2HUgJAoKtppzXLHZUAfZANVZmdqNjxdeP7HnbIW9VjC+iZubO7v8vw8FZvRqsLsvgP33Zm+2m6GYOBBXBkAAOrnYYl6Bq4lRVIezt5fkeDTmpWzl6n6OB4UP7LS5HEmWVg7P18+DTNONbJz73hpW58HCl3Oqeq5Bw9yS6Hz2Hh2sCyHvIKHeyfgauy4ieOGxWhz/8lKnY78nKYkHJBVKaSkIa4E1XOw5+XyrMxVljhJVimFhfkdUecxVHrAPdzGJQFZ7pqpdQNVKtrKeFTkdVD02wx1HxOBcU+RVs0BU07uhXEfDSYlgUipIVwVAADqidT9VMfjJrVKcfZezc+vX7JwoEuqKo+BbDqnDeP84dyJmzHjlC/3Rr7WJWO5udplkJr8yn5eWxtLEd3LQzn2tVZ6pjSH00Pi5GiLsrdymDA+6CAJtGlr/0n5ldIOfAbTpIQDsn8QrgR6CAv1V1mGub+/VxLZTFmdx4+hiidFlrvmIhuocvQMKPnwtTo9cUNNU71a391kMXXreYamBZp+3smmqJsHha7IjPzEw9fcJg1XAgCAequpVc/sIrKhK87eGz6Dr3l/iSqfX1KsHSsQli+bvmawj8cZzDjlelJdayxrbmZqU5/J6pUBXo5K/+w9yFu1N+/awtXF7pqyn3NY4MCTuBLlQ/YdmThhWIw2j8HNm/fc2v/5p1ZjPv88RFkZ2ghU4QbQE8YGqf3rgEoC7lRmua+8eGITLgP6aN1AlYq2pHVPONsyzy5V9zHh6hlJNPmcR1i7xOdErnD5m2fQp0wGNSWFAABAtR48eMRTx+MuLcMvaW9CMi9HjvA5qqrnv1dQwteGcSZB0K/3rh5DsoAx65SDzOsLZ/fbkbHXtr77D+mfpOzn9FWDG0qkhruyM6WDg7xRv50Cc94bu01HR3t/rywobP97ZZUGJRw8rXvaHVcBPZANfMnKHWU/L1m55e/XL1ndx4+hqiemKss9qUgUklyYF4xLgT6o3EB1a+bZZdK6KrX+5ZlrYKyRAXeSuR8/8r2I46PeG8Mz0vwsfgAAAE2wYvmslaoKZBRoScCdIMugY2P+OcKMbSLFrFMcEgjY++Wq8Xt3r5pAauhr4xgIhc5Kr+PuO8g9he7jouyNU0mASKjCmvqahGyeOiUyZJ+29r9I0v7VYM0atLqnpETzy8+pkwC/fkq/qRseNuRw165d1L60lMoC7lRmuS84f2yXJmywqUm2Dx67hIoNVGuaGvXX/Zas1rX6Od0MNeoXLXJeV3gGbs6Z/IkLuY4x2wEANEuxmv+iI5E85OEsvh4JZIwZExiriucuKHzA16ax5nJ7Ffzn0KYABN2pR24azX43fEdK0h6XkSE+x7R5LEhQWZl13B372mSRsh/qMDbK3Dh1sK/HGU0IENHFsiXvrDEx0c6baI/K2r8fjVT6GEFqUIhRIYOVvjJydKjfYU0YO4Yqn5yqLHdxVRl/W9avS3Ep0IdXL8uM2U5CSu5K77uRPltUIRWo7S9b+pqT4S7sZZWeGbnMY9OgsJX6uqwazHQAAM3TomU1kLXRRx9O2qiKLPfm5hamOP++QJvGmm/bR4SgO8WfRwe6pCYn7vJYu3ruEnUJ/CqSsuu4q0P99lb2dlZKy3APDOiP+u0UIitWov4xd7E29r2kpFSrg+cluHlAr/dcocs5Zd7UJSvXhEJXjVgtpNKAO5VZ7pszUlaoe+kRTbNJGLaS3bW73HelZc9amCsvJaptrX6ugfrXcCfXaUzQ5JmXJyzxdu5hkYvZDQAAdNW1qy4yDN+CZLmPDvNXSfbQ7TtFTto23q1Bd9R0lw/Pylx8YP/a0B8OfRrgYM/D59E/8R7olqqs5xIOcE1Vl3FR5sapfkO8kjETqTU2PCBuTMTQWG3rd0VFNbu9P6NJNe9lMhkSP2j1ubpLvb8Sy8qEjvQ9qin7sTBUfQBbfUZTssFmZeNT45WXE7GBKo2QDVQ3+4StoKKt+Hs5EakSsb86jkOvboYP1fUc+vfmp54cNSc0M3K5xwzBwIOY1QAAmk9Pr5tar2AyMzNFJnEbzJ09Zpsqnjf3xl13bRxvEnT/4dCmAFcXuwzMvnZe02wT6YaoDxecPfN136CAgYkYkb8aqMTa4Z4eDlfUZVxs+Vyl3ORysLfKtTBnSzATqfevDfM/8FLiCg46qKl9qt/en+FwNGf+9TA1LsPMp5eggAFKW8EzfmyQxsSdVB5wD7R0SCFBPSraisn7bWbGwyIvXA70MUMw4CBVqxhWXj6hljdUeAbqtaEoqdE+nu96lATZz45ZEDDK2gm/2AAAaBF13njQ0ADlJdrKydE2y3+Ip9I3wrp9p8BZW8ec3AxK+PFz78mThu/DDGzDeLFNpFGr5y6+fOGA9Yx3QndrSsabIri52mV07aL41T1klYY63dQkmxcrY2VJYMBAlJNR4Dn8evffJ5CbGtrS52YtL+1nYITPcnQTOHRgojJWUZDrnHw+1ZRxY9DhINb2D1lHVVsLzx/dicuBPpgMhmyzdyglWe7pDwuFx8S/j1O3MeAaqEcNd5YOs36xq9+OvGkr+/4Q8u4Eqm6UAACA+lHXetPmyDBsl9mzxuxQ9nP+dvWGr1Z/NtbRkX22afGc6O3Lp+EG0av17t2zoDXQ/t674dHYiLJt88pDCRuEqlP99lYODn0UHqj19/NEORlFfiYxM5XG//i5N9m/QRv625ENUC25vQo0pf+Wvc0KMevphSTjKOM9RlM2S21Fi4C7P5efGsS1O0NFWyQoG3crYyouCfoItuqbTNX5XXH5xGZZS4ta3fElNx04ega0DVyQY4saEBxVNGud5fYhY5bwjczEmLUAANqNy+1ZoJ7HrTm/cCqDn1+/ZGXXFSe1ae8VFPO1fexJbeLTSV+5aEsAqS0c+9pkff7ZkplpqfvtEGhvP28lzCUvLye1K+3hoOCNU8lmgp5KCERpO5Lpfij2X8OmTx25B6PxV2Y9NWdjbp6VBeIRNBQwxEvhqyLHjwvSqDLGDLocyE6/cQtJKQsq2lp2MWFrTVO9Pi4J+tjiG7GcinbEVWX8vTcuzlW3/nP0DGn3Bsg3Yot3+Y1bcO+df1ivHTBiHZvVHbXSAADgBVt+H7Xc3NGaZ45f0tppigrKm6RfyfbDyHfqRGo+kw1ASbY7h9NDK1dnkCXqYWFDDscf+9w7OXGXx4Txww6idEzH9PPoq/Cg74B+jhfVbVwEAmuFBtwHeDmm4eaQcpDXhn+tX/DB3i9XjdfUFUJkhc/K5bPaXSHAopdmrPAjN7CwFw89BQ7tr9BSwyQBQdP2wqBNprDAhCNa4DJ4147sc4vlbUta94Sz8erpVZsGha3EZUEPpDzJzL4DYkidfXnb2nD1l9VT7bziyKas6tJ/rr6RJKvsAS02CRP2skpf0S9o8yieUyLJvsfsBACAl/W166OWtVJtrC1FOHvtExrqd+Rfnx3Y3NysvBWEFy5lBU2eFLIfo/8Hku0+fJgw4euvjy3dfyBhcfWTWmNN7zOp0zpxXFDM+HHDDqrzvhF00q+/YoPh5KaQOq4isrXpfUuR7Q/28TiD2adcI0N8jvXv1/fi2g1fbz9x4nykuveH3Hj09/NKmjZ1xB7/IV7JHbnpaKUhWeF8W3yOoytSW528D3Sk5FGb8d6SXAAAIABJREFUPgtFBMRq2pjRqjTH2gEh6w6Lr0eSgLm8bW3NPLtskr3nEdShptH59Xp+fm9fj6xvlrHkaYfMj+js1EUkK1td+s7upq/SXyT0dbvURFi7xL/n6L2flHDCbAQAgDdxdLTJUtPj/h1nr31INtEgoVvqhYuZQcp4Pi8vxzTvAa74LPLyZzW9bjUfL562bva7Y6L3/fv4Ik0MvJNf1ENH+h6NGD00jmzyibNO/RwiZXlu5t1VSJJP//7qV06GsFVwAI+U5sLsUz6SBf1l9IrJ0yeP3Bu1/uvtipr3isSzMhdPnhiyLyIiIE7ezF5N+fyD9wZ6C/Drl3ToyC+zqW6XbPodFuZ3RNPGi1YBd5KxvEE4avXsXw/LvbRV9qyFOTnp4KHMyOUeLKYulnjR4Q3FyLRgsZvfjs3XU+TeRHXztZQVc50H7eXoGWG50WtwuxtJQvoIkiLtPQ/79bY7h2x2AABoK3cPwRWyZNvE2OBx69dIFmp3vW41//MBuatuvTKW/kokD3kvf62qusa4uvr/ApKlpRW9HByscnH22i94mHe8ogLuZHm4t9A1NXiYMD5o6IBELBV/M0PD7pUk8D7/g4mf/hj/69TY70/Ny86546Wu/SGZ7IEBA08GBXol9vdyTsMZVqx+noJ0qgKPpGSHp4dDOjlv3kLncx5KKFmjkICHjo6M7FWRf7dIQNWcfjEu/ZzSfHw8UiywWbdKkfcXUo4q+ZfL4Z9Hx0XRPfDeeuMxdJTfkX4U1v4nn3/+/LmNyWTIzDlmf5mbxs8/y+m/9FlOGcrLq9l1dU//Uva5RFrKlcn+WGHX2NDUlW1m/BCzmr7I+7kiAu7Dg73jVTEvFf7+Q7cDes9RuH9P7sV5GY+K5P5gKap8JFhz5dT6LT6jl+PSoIe/eQZ9uif30rzKxqdyZeyQLPk1l39e/03g5DnqcaF1Vkqwm9Rlj7BxjQ+3cU7wNbfBLzUAANAh5EMvWbJNl+N5VRkDbqdeOFEU8fFxTSF1Y6XSMq68pWVag3Qe7oJ0b6HrOZIVi5rc7UdqQpOyO+Rx63aBc8KJC5NOnEyNLCgsofWGs2ZsE6nQ2yWVrGII8OuXjI2MlUs4wCX1Pz+cntnQ2MRqzzkzN2dLyGbZtjZ9RM5ONln2dpY3+LZ9NKa0g6urXUZ7Au4k25KMiSWXU8DjmYttrS1Fjo7Wv5OSCuSmGGYa/QQP904gj7SLmYHfff/zvORfLkcos1Tam5AbPuTGtiJvPNLtc9vLSNLGq8qH4T1CzT4v+rqnkNfH9rzHtMWkscNiNHG8mHQ8qJ1Dxi70Php9mYq2dmSlLh5n63JMyLHGzuE0QFYxRA0IjlqcFr9D3rZiRFdnLvUM2Ebq/9O931wDY4VlPpCySRE2zvHhNq4JKKEEAAAA7UUCa+kXYqxb/93Q0MgqLa14UeKxvqHh+d8r/1vukawkIP//il+aC/m2XBEy2KnnYM/L/WQpeUxfI86/L/j116ujyIqE65m3hKosO0PqDpNjI1nVLs78jP5ejhc1KUirjkaH+R0Z/f+X5dfUPdWvLK9mv+579fS61WhL/fwvPl82nTz+eA0r5zQ0vD5YZGZmIsUmqOrL18cjhTxIRnXy6UvhyafTIy6nZ/vX1dXrK+sYcOMRNFVhQTGf6mA7WfVBAvmaOF60DLiT4DhVG2yS0jLTT8d9lxm5zENfl1WDS0T15jr77N2Vk7ZAXFXGl/fcrryUuOn4qPfGaN0HCY512ni+29FR1k6JfCMzMWYVAAAAUIUEm/4cIEAQlT7IuSCP9+eM20b+TbLfs7Pv9LspuusuFhcJRLcLnane0MzExLDM8vl8sOKZiy0tOAVOjtZZtrbcWw4OvFysXqAvkvGqiUv05YWbgtqB3ExqXSUka25m3rhx1z0r69bAG3lid9GtQuf8fImAihuWJLgueP5a6ODQJ9fFxT7Dw83hijXPAr+fg0baF/PTIqrbHBseGKupnyWYdD2wTd6jVsbn50TIW3qEIIHdlZdObtrpN34hLhHVIzX1NwhHro5M/vawvG3F38uJSJWI/bVhI1D/3vzUaQ5esaN4fRNRux4AAAAASIY5eTz/68E/f53se1D0/FFR+aRHbU2dPlmlQFYrtP5/UXEpr2cPksnL/G8mbw9T4zI9va413fX1aszYRg9J/V9k+wKAuiPBPLIZ58sbcpJ9YEgNcZIN//w106q+oYlFVkC0/r/0YRm3qfkZ88+vleTmo6GhfiWX27OQlBxCiSHQFuTaOPFTaiTV7UZOGr5fY1976HpgJKC42mv4hmWXErZS0R7JqB5n635MGwKz6mCSneeRrZlnl1FRq3/d1aS1/twFtD6v+kz5V1ccGDplFtl4FrMHAAAAAN6ErFBAGQMAgNcjwXIEzAHa5ru4n+dSXU5GONAlVZNXhDDofHCL3P2iBcY9KVvCOuvX7w/UNCmvdhe82ZZB4ZRsZpv6QOxPstzp3Fe2nl4ZzjgAAAAAAAAAAKgLsndP7Pen5lHd7vQpI/do8rjROuDOZDBku/zGLaCqvYLqct7C8z/uxOVCD2S1QSjP8SQVbZEsd00fr8qmp8aYNQAAAAAAAAAAoAz/OXpmRmlZBYfKNsn+MMHDvRM0edwYdD/AQEuHlAUuvruoao9sxJpwNycclww9bPEZvZzZmSH3BgnqkOUur8p6BNwBAAAAAAAAAEDxyKbDX+87tozqdieOC4rR9D1iGOpwkJsGha7kGVJXu3ra6e9iRRVSAS4d1ROYcEQzBf1jqGiLzlnuxl30UBsOAAAAAAAAAADUwi+n08MLCkv4VLeryZultlKLgLu+Lqvm0PDpk6nIhCZqmhr1J5yK+QH13OlhvffINSwdptx3tkiWe8ZD+TdhVQSjLt2qcKYBAAAAAAAAAEAdRO88tJrqNslmqXzbPiJNHzuGuhyokGOdvtjdfwdV7eWWS51npXx/AJeP6nH0jKQr+gVupqKtjRm/rMKIAgAAAAAAAAAAdEzaxczAm3l33alud9aM0bu0YfwY6nSw6weOWOPO7p1FVXtHxdnjN149jQAtDSxy9Y827tJN7rIr8fdyIrLKHrjTrX+FNY+t5G2DxdSpx0wBAAAAAAAAAABFit51mPLsdg6nh2T4MGGCNoyfWgXcWUzd+gNBU2ZRVVqGiPrtVFRyYV4wLiXVMmZ1q1zgNpiSu1zrrtC3lrtcL0zdjKSYKQAAAAAAAAAAoCiX07P906/k+FPd7vQpo/YwdXRk2jCGDHU7YJLhvrr/sA1UtSd71sKMTP72cEFVOQ+XlGrNd/HZTUUtdzpmuctanjFxhgEAAAAAAAAAgM4+j46jPJG1axfd+slasFlqK4Y6HvQqr+CNwl5W6VS1V9n41HjMqf3HsYmqapFa7vOcfPZQ0RbdstwlNRVcnGEAAAAAAAAAAKArRWW3jx0TEGtmZqo1lRvUMuDOZDBkB4Imz6IiG7oVyYj+4OwPX+HSUq2/eQ39lKos99zHxc4YUQAAAAAAAAAAgLfb9NmBTYpod8b0sN3aNI4MdT1wgQlHtNk7dAWVbcbevjbt0+tn/obLS3WozHLflpW6lC79qpfJWHKPTXcD1HAHAAAAAAAAAADKJf9yOTwz65aQ6nb9h3gmOTnaZmnTWDLU+eAXuftHh/IcT1LZ5opLJzdHZ6UuwmWmOlRluceKMqaJq0r5dOiT9OkTjrxtkE2DMTsAAAAAAAAAAIBKsuZm5pbPv92giLbnzhm3VdvGk6HuHfguaPp0vhFbTGWbi9Pidxy5c30SLjfVoCrLnWyIuzHj9CpNGBNmZ4YMMwMAAAAAAAAAAKh2/PivU2/dLqS8NLNjX5ssXx+PFG0bT7UPuBuzulUeH/nuGH3dLjVUtjvtl9jYY+Lfx+GSUw1Ny3KXd0NeroGxBLMCAAAAAAAAAACoVFP3VH/TZzGbFdH2x4umRmnjmDI0oRPOPSxyYwKnzqSyTZIdHZl88HByYV4wLj3l07Qs97KndWycVQAAAAAAAAAAoJOvvz62tLSsgkN1uzwrc3HwcO8EbRxThqZ0ZBzf7djq/sMprTVEgrXjkw4cTSu564vLT/nmu/nupqKUCp1quXf4RcrAtAAzAgAAAAAAAAAAqFJcUsb9cs8PKxTR9kfzIzdo67gyNKkza/uHrAuxFCRR2WZNU6P+iJ/2nELQXfn4RmbiaQKvWHnbITdOdv+eNl+dx4LqkkkAAAAAAAAAAKDdNmzet6WhsYlFdbsku33MmKFx2jquGhVwZzIYskPBMyZTvYkqCbpPOHXgB1GFVIBLUblWeQ3bSEWW+768y7Mr658aq+s4cPVRwx0AAAAAAAAAAKhx7ty14BMnzkcqom2S3c7U0ZFp69gyNK1DitpEVVr3hBNwfPdZBN2Vi6osd3LT5KDoygxV9cO9R+8seX7euYd5LmYDAAAAAAAAAADIq6GhkbU66stdimhb27PbCYYmdopsorpvaORsqtslQfdh8V+dltZVcXBpKg9VWe67ctIWqKoPodaOJ+X5+VF9nBIxEwAAAAAAAAAAQF5btn27vqCwRCH7HS5ZPC1Km7PbCYamdmySneeRZR5Dt1LdrqS2iut9NPoyMt2Vh6osd3FVGT/x3o1RquhDoKVDiju7Y1nu4/muR3lG2DQVAAAAAAAAAADkcy1TJNx3IH6xItp27GuTNTY8IE7bx5ihyZ3b5B26kgQrqW63oLqc5/1D9OVUidgfl6lyUJblnn1BZVnuB4KmzGpvH4y7dKvc7jtmCWYAAAAAAAAAAADIg5SSWbp8+4Hm5hamItr/eNHUKIyyhgfcX2yiOnzmZEUE3SsbnxoPS/jydNytjKmYRopHstwjbJ3j5W0nqUgUoqrVCSTD/XDwjMi2Bt3JPgQnwuaEcfVNsGEqAAAAAAAAAADN3bpd4Pxd3M9z6Xp8m7cc2JR/t0ghcTEvL8e04OHeCZgFGh5wJ0jQ/UDglFm+HOs0qtuWPWthTjsdG7vut1NrMZUUb5GbfzQV7ezOTpuvqj6M47sduzBu4WCBcU/Rm74viGt3JidyhYuvuU0azjwAAAAAAAAAAL3duJnvPnrsx5fXRH2563J6tj/dju/M2Suj9v07YbGi2v/k43fWYBb8QScqKkrjO9lFh9k40c79hwsP8ofcr6nsQ3X7qQ/y/QuflPNCeU6JjM6dWzCtFKOPgcn9hLs5EWTzWnnauVkhdfzQ2fcrFlO3XhX9IBnrC1wH7+5vZpmhx9StYzAYLRbdjYodTXrdnMj3+M9237FLVngFfWrM6laJsw4AirA9Oq5db/6Ght0rZ78bEY2RAwAAAAAA+CuJ5CFv4uQVZ6uqakyfPXvGSD13LWTUCN9jhob6tIjtFJeUcafP/EdSfX2DniLaDx7uHT9/3sRPMRP+oBUBd6I16H48P3tsWX0tm+r2s8oeuF8ozh8SYe2SoKpArjbQZejIfrqXO1qeNhpbmruY6xlIhRzeFVX2xd6k553RNi4n3nca9A15vCMY8F2QpUOKhb5RMc40ACgSAu4AAAAAAADUqKl7qh85dWXK/SKpTevX6urq9VPPXQ8ZGzE0rmvXLvWqPr53Zv3jVGFhCV8R7evoMGT7v14bbmJsUI7Z8AeGNnVWX5dVc3bs/IC3lfPoqNQHYn/vo9svF1SV8zC1FGOqfb84dtfuZfK2sysnbQFGEwAAAAAAAAAA5PHpZzGbbt0udH7566RW+ozZa0+QgLcqj++TldHfZOfc8VJU+9OnjtpjzbMQYyb8H4a2dZijZyQlQXe+EVshE0FU+UjgfWz75XTpPSGmF/XI6oHZTsJ98rYjrirjJ967MQojCgAAAAAAAAAAHUFqtcd8e+K1SZ0ZGTd9p89cc0pVQfcN/9q35cSJ85GKat/QoHvlctRu/wuGNnaaBN1PhM4O4+gZSBXRPqkxPizhq9PHxL+PwxSj3nxX393MzgyZvO3syr6ALHcAAAAAAAAAAGg3WXMzc03UVzvf9n0k6B46evFVUkddmce3/98Ji/bu+3GZIp/jk6UzVpMSpJgN/4uhrR0XmHBEZ8fMD1BU0L2mqVF/fNKBo3NSDn1T01Svj6lGHbLpaIStc7y87SQViUJEFVIBRhQAAAAAAAAAANrj+PFfp76qlMyrkPIyoeGLrqZdzAxUxrGRYHvUhr07FPkcDvZWuVOnjtiLmfBXDG3uPAm6nxj1fpi+bpcaRT3Hvrwrs10OfZaDEjPUWuTmT8nmfbuz0+ZjNAEAAAAAAAAAoK1IdvsXuw+vbs/PlJZVcKbNXJNEyrw0NDSyFHVs6zbs3a7oYDsRteb9xUwdHRlmw18xtH0AvHpZZpwaPW+EIoPuBdXlvMHHdl5Yc+Xn9bKWFiamnfx8zW3S3Nm9s+RtJ0b020ysQAAAAAAAAAAAgLb65XR6eEFhCb+9P9fc3MIkZV6CRy3MpDrbvbq61nj2vPXH9/07YbGi+z8mYmisr49HCmbCq+lERUVp/SD0MTC5P5TLP5tYcDOUlIJRxHO0dHrGOF+cP+RU4c2RQyxsLrC76Zdh+slHl6Ej++le7mh52mhsae7SW9+oeEAvq6sYUQDQFtuj49r15k9q8s1+NyIaIwcAAAAAANCp09/X7P5S8uARr6M/X1FRzT52/Nd3yKarvcxMpTyeRb48x3Pu3LXgGbPXnszMuqXwChtko9QD3/wjvHv3bjWYCa+GgPv/96IuuI1Lwun7t4aX1deyFfU8xbXVFgdFv8006sqqRpBXPo4mvfL25lyaV9fcpCdPO3erHtsscB28GyMKANoCAXcAAAAAAICOkUge8tZt+JqSki0kaP9jwtlpP504H0ky1Hv0MCw1NTVqc5Lu79l3vFas2rl3247Yfz55UmusjP6v+fucZYMGuZ3FTHg9lDf5E76Rmfjy+CXeYSe/PpEmveerqOchWfQLzh3blVSYF/LN0ElzOHpGUox++7GYuvWznYT7Nl9PWSFPO6LKR4LkwrzgYKu+yRhVAAAAAAAAAAB4nR/jz06luk2yqeqWz7/dQB69e/cs8PQUpLs722VYWVmI2WYmD3uZmbyIHdY3NLAeSEqtrmXmCVPPXwtRRkb7n3m4O6Rjo9S3Q8D9JcasbpVnxy4MmHUm7kDs7WvTFPlcJwtuhrrEfZYTEzRl5ihrp0SMfvvNd/XdvTXz7DLZM/lq48feypiGgDsAAAAAAAAAALzJmV+vhCqy/QcPHvHI48SJ85F06reODkO2ZfOiOdgo9e0YGIK/YjIYsu+GT5++uv/wDYp+rrKGWnZo4jcnJyT9+wdxVSkfo98+L0oB2TrHy9vO0fzfx2PzVAAAAAAAAAAAeJ3y8mq2srPK6eKj+ZEbHOx5uZgFb4eA+xusHzhyTUzQ5JnMzgyF37k5Ks4e3zd2U96S88e3V9Y/Ncbot90iN3+56wrXN8tYCXdzwzGaAAAAAAAAAADwKmkXMwO1sd+OfW2yPlo4eSNmQNsg4P4WMwQDDyaNnhuir9tF4TvvkrIoO7LPLbb+9p/3tl0/u7Re1sTCGXg7X3ObNHd27yx524nJuzITowkAAAAAAAAAAK9y9dpNX23rMykl8/mWJbNQSqbtEHBvg0BLh5SrEz/uz+1uJFHG81U2PjVedilhq8uhT3OO3Lk+CWfg7Ra4Dt4lbxupD/L9y+pr2RhNAAAAAAAAAAB42W9Xb2hdwP2Tj2esdnK0zcLZbzsE3NtIYMIRXZ30cX+vnpYZynpOcVUZPzL528PeP2y/nFZy1xdn4fUm2bkfYekw6+Vpg6wwiBNdnYrRBAAAAAAAAACAP5M1NzPz84sE2tRn4UCX1PffH7sNZ799EHBvB46ekfTsmPkBEdYu8cp83vSHhcLBx764gI1VX09fl1Uz3tbtqLztHL6TGYnRBAAAAAAAAACAPyPB9oZG7Sn/bMY2kX75xd8mo5RM+yHg3k4ksHt81Htj9vhNmKeMuu5/1rqx6sJzR3eKKqQCnI3/FWnneVjeNsjNDdzUAAAAAAAAAACAP8u/+8BBW/pK6rZ/sX3ZNDMzUynOfPsh4N5Bc1189mZGLvcQ9rJKV+bzkrInu3LSFvSN25w3ImHPqYS7OeGylhYmzkinTsFWfZPZXbuXydtO3K0MlJUBAAAAAAAAAID/KrhXrDUJmuvWzFvs6+ORgrPeMQi4y4FvZCa+MG7R4KgBwVHMzgylL69IKhKFRPy8P94udsOdbdfPLq2sf2qszeeDyWDIIu095M5yj711bRpmNwAAAAAAAAAAtJIUP+RpQz9nvhO2a8Y7obtxxjsOAXc5kSDv2gEj1l0Yt3Aw34gtVsUxFFSX85ZdSthqfmBNyQep//kq93Gxs7aej0n2nkfkbYNsVpsuvSfE7AYAAAAAAAAAAKKoSMrT9D6OHOFzdO2a95fgbMsHAXeKCDnW6ZmRyzzmOQ/ao6pjqG+WsfbkXprncuiznGHxu09rY7kZX3ObNCpufBy5nTUJsxoAAAAAAAAAAIjyiidsTe6f/xDPpN1frMAmqRRAwJ1CZEPVr/wnfhA/8r0IKmqJy+OM5E5Qa7mZjVdPr8oqe+CuLech0l7+zVMPi69HojY+AAAAAAAAAAAQDQ2NLE3tG8ls/+rLVRMQbKeGTlRUFEaBYgKTXrfe6ev13a2KR4LblaX2qjyWyoanxr8+uDN0b+6leXG3Mqbdq3pso9+la61Fd6NiRufOLZo4/n0MjIt2Zl/4SJ42apoa9f0sbM7bGLHvYUYDgKbZHh3Xrjd/Q8PulbPfjYjGyAEAAAAAgLaKGB1w6FFZJefmzbsaldRKgu0ks53VtUs9zjI1EHBXEJLtPsW+3yGzbt3LzhfnD2lsae6i6mMqb6gzTX9YKDyQd+Xdr7LTPsyrfOjY+fnXeQamhUyG5tzBMmV1L08suBFaXFttIU87Lc+eMcbauh3HbAYATYOAOwAAAAAAQPt07dqlPmSYd8JgH7eUrN9vD3j8uKqnuvfpw7kTN3/6r4/mMhiMFpxh6iDgrmADelldnWLX79Dj+hp29uMSV7ocV11zkx4pM3P4Tmbktsyzy649KvJqaGlicfVNHugxu9Sp+7g/bWrUS7ovCpGnjbvVj20+dvffrkk3IwAACATcAQAAAAAAOqa3Rc/7UyaP+Ka3hdl9Enivq6vXV7c+6Omxaj7duPD9ue+P24YzSj0E3JXAmNWtkmRKh1o5Jd6pKrUveFLOo9PxyZ61MEWVjwTxd3Mjtmemfnz2wZ2h+dVl/CeN9YbGXVlVJFtf3cacZ2hSGJ11fnFLp2cd3qeArEroa9JL5Mq2yMEsBgBNgoA7AAAAAABAx5GMcBdnfubMd8J2m5oYld24edddXQLvjn1tsr49sG7UkMH9TuNMKgYC7kpkoW9UPLPvgIMe7N5ZGY+KvEiJF7odIwlQkxsCpAzOH9nvqcv237g8+0Lx3SGFNeW8BlkTy7Rr9woWU5fWdZ3ITYILxeIhd6vLbeQaj2fPGJH2nkcwewFAkyDgDgAAAAAAID8mU0fm6SG40hp4Lygs5ldW1ZjS8Vh1dBiyxQsn//OLHcun9zQzleLsKXBeYAiUL9zGJWEUzylx742Lc6PSk6LKGmrZdD5eSW0VV3Ivhxt/Lyei9Wt8I7ZY2Msq3aunZUa/Xn2ueZlZZtAtCD+z78CYM5I7QfK0cUZyK6he1sSi+w0GAAAAAAAAAABQDVLf/b13w6NnzAjdnXo+Izg27tS81HMZIc3NLbSIvfoP8Uxau+b9JXzbPiKcLcVDwF1VA89gyOa7DN491c4rbuO106t2ZZ9fUN8sY6nL8YuryvjkEXv72rQX/enMkPEMTQu4+saS1j+5ekYS8mdvA+MH5E82q3uZMo8x3MY5gaXDrJdnXGuaGvXTpYVCfy4/FbMWAAAAAAAAAABeh6mjIwsKGJhIHqWl5ZyfTlyYdDLpwviMjJu+qjge4UCX1I8XTV3nLXRNxdlR4jzAEKgWqe++xWf08rnO3nvXpP+8npRxUcd+kDrwrUH4Tg9e/T0k+P0iIG9gUsA1MPnjT30Tia0hO9+d3TuLjAWVx0TKyoy3dTvaelOgo5Lv5wUj4A4AAAAAAAAAAG1lZmYqJVnv5FFcUsY9dz4jOPX8tZDL6Tn+FRXVCqt2YWJiWBYe5nd42pQRex3sebk4E8qHgDtN8I3MxIeCZ0xe5DYkennaT1vSpPd8Na2PJNP8v0H5lydiZ4YsxEqQtMpr2EYhxzqdqueMtPM8LG/A/YzkdtCmTp1WYpYCAAAAAAAAAEB7WZizJZMnhewnD/Jvcf59QXZufr/MTJFQdKvA+dbtQueOBuFJbXYSWB/k7ZIaGDDgpFDoeo5k2mPUVQcBd5ohweYL4xcNTim6FbgrO23ByYIboSR7XNP7Tfp4suBmaFKhKGSFV9Dm9QNHrqGi3UBL+xR5y8qQDW7L6mvZyi6JAwAAAAAAAAAAmofUUiePseEBca1fq66uNS6SSHllpZW9HpWWc0qkj7kymYxZV1ev/7jyyYtgvLGhXqWBfvdKI0ODSjMzY6mtLfcW39ZSRGrIY1TpAwF3mgq0dEghj4Kqct7u3LT5+25cnl3Z+NRY0/tNAu8brv6yWtbczNw0KEzurHKy2am/BT81qUgUIk875AbIJDvPI5iZAAAAAAAAAABANUPD7pVOjrZZGAn1x8AQ0BvPyLSA1Hgvefef5nv8JsxzNuVoRe2lzddTVpAgNxVtBVk6nJG3jaT78gXsAQAAAAAAAAAAQPMh4K4mSKb2XBefvTlTVricCf8gKMLaJZ7UPdfkPi+7+NNWKtoJtnJIlreNM/dvBWEWAgAAAAAAAAAAwJugpIwa0pZyM1llD9xzHxc7O/ewkCurn/w8R89AKq17wuloG5LaKq6oQioQmHBEmIEAAAAAAAAAAADwKshwV2Mvl5txZ/fWuDpPKUW3KSkrE2LVN0neNpILRcGYdQAAAAAAAABY1D5OAAAEy0lEQVQAAPA6yHDXAK3lZsiDZL0n3MsOj7+XG5FWfNeXbEKqzn2jKnM/iGt/Jibvt5nytJFUKApZ5O4fjRkHAAAAAAAAAAAAr4KAu4YhWe8kKEweZfW17MSC3FHx+bkRSffzQuqbZSxtHZdAS7sUedtIk971rZc1scgNDsw0AAAAAAAAAAAAeBkC7hqMzepeNkMw8CB5kEBx8n1R8FFx1niSqV3WUMtWhz7wjczEVLTD0TOSkpI7pC58R9uoaWrUT5cWCv25/FTMLgAAAAAAAAAAAHgZAu5agmRlh9u4JJCHrKWFee7BHb+T926GHs3PGk82BKXrcfv1tj1HVVshfQRJ8gTcieT7ecEIuAMAAAAAAAAAAMCrIOCujSedwZAFWjqkkMf2IWOW5D4udr5YfM8n49F9r4xSiVfu4xJnOtR+D7EUJHH1TSRUtRdkaX9m8/WUFfK0cUZyO2hTp04rMYsAQJ117aJb39DY1OYyY7pMHRlGDQAAAAAAAODtEHCHTs49LHLJY24nn73k3zVN9fpZZcXu1x7e75f+sFCY8ajIS1xVxlfmMbF0mPXbh0QsobJNH3Obi/q6XWpIaZiOtkHGgtTGJ+V6MHMAQF05OPBys3PueLX1+zkctgSjBgAAAAAAAPB2CLjDX+jrsmp8zW3SyGNRp07R5GuV9U+NrzwsGJjxSOJFMuHTiu/6KqoOPLMzQxY7bPo0gQlHRGW7pKyOL8cmLalIFCJPOylFtwIn2XkewUwBAHXl6SFIb0/Avb+XcxpGDQAAAAAAAODtEHCHNjFmdasMtuqbTB6tX5PUVHB/Ly12k9RUcguelPPIn6Qe/Iu/P6nkdqQsDUfPQBo7bNo0Uu5GEf0IsRIkyRtwJzcdEHAHAHUWOXH4/u/iEuc1N7/9dZqUn5kwLvAgRg0AAAAAAADg7RBwhw4j9dXfVGNdWlfFKagu5z2oqe5NgvOS2mou+ZN8rTU4/2ISdmbIhL2s0sfz3Y7OdfbZSzLRFXXMwVaC5E5y5mmW1dewcfYBQJ05OdpmfTQ/csP2L76Petv3frL0ndXWPAsxRg0AAAAAAADg7RBwB4Xh6BlJyeNN30PqxZMSNso6JlKmhtvdSNIa7O/YRdMZmwcCgNr7aOHkjRWVT9gx355Y8Kr/19Nj1fz9k3dXzHgndDdGCwAAAAAAAKBtEHAHlVJmsL1VSB9B0r68K7M7+vNU15YHAFDJBwAdHdn6qA8Wjg4dfOS775Pm/nY11/dJda2xvYNVrrurXcZ7MyOiudxeBRgpAAAAAAAAgHb8vo0hAG3znpNwvzwB92Arh2SMIgBoCrIhKjZFBQAAAAAAAKAGA0MA2kbIsU736mmZ0ZGf9e/NT3XuYZGLUQQAAAAAAAAAAICXIeAOWmnLoPDlZLPW9vyMvm6Xmp1Dxi7E6AEAAAAAAAAAAMCrIOAOWsmfy089HDwjsq1Bd/J9MYFTZyK7HQAAAAAAAAAAAF5HJyoqCqMAWsnRlJPnZMq5+WvRnaF1zU16r/s+vhFb/EPIrAkjeY6nMGoAAAAAAAAAAADwOtg0FbTaOL7bMbIJ6kHR1Rkn794IzS0vcZbUVnF5hqYFfMMe4kj7foen2veLYzF16zFaAAAAAAAAAAAA8Cb/D+fNQrz1mCFvAAAAAElFTkSuQmCC;" vertex="1" parent="18">
          <mxGeometry x="320" y="20" width="250" height="62" as="geometry" />
        </mxCell>
        <mxCell id="19" value="" style="shape=folder;fontStyle=1;spacingTop=10;tabWidth=110;tabHeight=30;tabPosition=left;html=1;fillColor=#333333;" parent="1" vertex="1">
          <mxGeometry x="470" y="160" width="270" height="270" as="geometry" />
        </mxCell>
        <mxCell id="25" value="Website" style="text;align=left;fontStyle=1;verticalAlign=middle;spacingLeft=3;spacingRight=3;strokeColor=none;rotatable=0;points=[[0,0.5],[1,0.5]];portConstraint=eastwest;fontColor=#CC00CC;" parent="1" vertex="1">
          <mxGeometry x="470" y="160" width="110" height="30" as="geometry" />
        </mxCell>
        <mxCell id="26" value="Registered user" style="shape=umlActor;verticalLabelPosition=bottom;verticalAlign=top;html=1;fillColor=none;" parent="1" vertex="1">
          <mxGeometry x="40" y="555" width="30" height="60" as="geometry" />
        </mxCell>
        <mxCell id="27" value="&lt;font color=&quot;#ffffff&quot;&gt;Search products by search bar&lt;/font&gt;" style="ellipse;whiteSpace=wrap;html=1;fillColor=none;strokeColor=#FFFFFF;" parent="1" vertex="1">
          <mxGeometry x="480" y="197" width="120" height="70" as="geometry" />
        </mxCell>
        <mxCell id="37" value="&lt;font color=&quot;#ffffff&quot;&gt;Show nutritional values&lt;/font&gt;" style="ellipse;whiteSpace=wrap;html=1;fillColor=#2E2E2E;strokeColor=#FFFFFF;" parent="1" vertex="1">
          <mxGeometry x="479" y="274" width="120" height="70" as="geometry" />
        </mxCell>
        <mxCell id="40" value="" style="edgeStyle=orthogonalEdgeStyle;rounded=0;orthogonalLoop=1;jettySize=auto;html=1;" parent="1" source="38" edge="1">
          <mxGeometry relative="1" as="geometry" />
        </mxCell>
        <mxCell id="38" value="&lt;font color=&quot;#ffffff&quot;&gt;Show information about the team&lt;/font&gt;" style="ellipse;whiteSpace=wrap;html=1;fillColor=#2E2E2E;strokeColor=#FFFFFF;" parent="1" vertex="1">
          <mxGeometry x="609.9999999999999" y="350" width="120" height="70" as="geometry" />
        </mxCell>
        <mxCell id="41" value="&lt;font color=&quot;#ffffff&quot;&gt;Impressum / contact&lt;/font&gt;" style="ellipse;whiteSpace=wrap;html=1;fillColor=#2E2E2E;strokeColor=#FFFFFF;" parent="1" vertex="1">
          <mxGeometry x="480" y="350" width="120" height="70" as="geometry" />
        </mxCell>
        <mxCell id="43" value="&lt;font color=&quot;#ffffff&quot;&gt;Show ingredients&lt;/font&gt;" style="ellipse;whiteSpace=wrap;html=1;fillColor=#2E2E2E;strokeColor=#FFFFFF;" parent="1" vertex="1">
          <mxGeometry x="610" y="197" width="120" height="70" as="geometry" />
        </mxCell>
        <mxCell id="54" value="" style="endArrow=none;html=1;edgeStyle=orthogonalEdgeStyle;entryX=0;entryY=0;entryDx=0;entryDy=72.5;entryPerimeter=0;fillColor=#e3c800;strokeColor=#E3C800;" parent="1" source="26" target="16" edge="1">
          <mxGeometry relative="1" as="geometry">
            <mxPoint x="76" y="566" as="sourcePoint" />
            <mxPoint x="130" y="520" as="targetPoint" />
            <Array as="points">
              <mxPoint x="88" y="595" />
              <mxPoint x="88" y="553" />
              <mxPoint x="160" y="553" />
            </Array>
          </mxGeometry>
        </mxCell>
        <mxCell id="62" value="" style="endArrow=none;html=1;edgeStyle=orthogonalEdgeStyle;entryX=0.75;entryY=1;entryDx=0;entryDy=0;entryPerimeter=0;fillColor=#d80073;strokeColor=#CC00CC;" parent="1" target="19" edge="1">
          <mxGeometry relative="1" as="geometry">
            <mxPoint x="70" y="598.0599999999997" as="sourcePoint" />
            <mxPoint x="160" y="498.0599999999998" as="targetPoint" />
            <Array as="points">
              <mxPoint x="88" y="598" />
              <mxPoint x="88" y="465" />
              <mxPoint x="673" y="465" />
            </Array>
          </mxGeometry>
        </mxCell>
        <mxCell id="63" value="" style="endArrow=none;html=1;edgeStyle=orthogonalEdgeStyle;entryX=-0.008;entryY=0.864;entryDx=0;entryDy=0;entryPerimeter=0;fillColor=#1ba1e2;strokeColor=#3399FF;" parent="1" source="26" target="7" edge="1">
          <mxGeometry relative="1" as="geometry">
            <mxPoint x="77" y="598" as="sourcePoint" />
            <mxPoint x="111" y="393" as="targetPoint" />
            <Array as="points">
              <mxPoint x="88" y="598" />
              <mxPoint x="88" y="393" />
            </Array>
          </mxGeometry>
        </mxCell>
        <mxCell id="68" value="" style="endArrow=none;html=1;edgeStyle=orthogonalEdgeStyle;entryX=0.003;entryY=0.377;entryDx=0;entryDy=0;entryPerimeter=0;fillColor=#1ba1e2;strokeColor=#3399FF;" parent="1" target="7" edge="1">
          <mxGeometry relative="1" as="geometry">
            <mxPoint x="80" y="320" as="sourcePoint" />
            <mxPoint x="240" y="320" as="targetPoint" />
            <Array as="points">
              <mxPoint x="100" y="320" />
              <mxPoint x="100" y="262" />
            </Array>
          </mxGeometry>
        </mxCell>
        <mxCell id="72" value="" style="endArrow=none;html=1;edgeStyle=orthogonalEdgeStyle;entryX=0;entryY=0;entryDx=190;entryDy=30;entryPerimeter=0;fillColor=#d80073;strokeColor=#CC00CC;" parent="1" target="19" edge="1">
          <mxGeometry relative="1" as="geometry">
            <mxPoint x="83" y="319" as="sourcePoint" />
            <mxPoint x="170.8401591578015" y="114" as="targetPoint" />
            <Array as="points">
              <mxPoint x="101" y="319" />
              <mxPoint x="101" y="148" />
              <mxPoint x="660" y="148" />
            </Array>
          </mxGeometry>
        </mxCell>
        <mxCell id="bYY5xVJ-usINXhbI3OhP-93" value="&lt;font color=&quot;#ffffff&quot;&gt;Show climate impact score&lt;/font&gt;" style="ellipse;whiteSpace=wrap;html=1;fillColor=#2E2E2E;strokeColor=#FFFFFF;" parent="1" vertex="1">
          <mxGeometry x="610" y="274" width="120" height="70" as="geometry" />
        </mxCell>
        <mxCell id="XWk0Wrpyq3ewGpUUQk3z-97" value="" style="group" parent="1" vertex="1" connectable="0">
          <mxGeometry x="450" y="601.5" width="140" height="73.5" as="geometry" />
        </mxCell>
        <mxCell id="84" value="" style="html=1;fontColor=#ffffff;fillColor=#0050ef;strokeColor=#001DBC;" parent="XWk0Wrpyq3ewGpUUQk3z-97" vertex="1">
          <mxGeometry width="25" height="24.5" as="geometry" />
        </mxCell>
        <mxCell id="85" value="First priority" style="text;align=left;fontStyle=1;verticalAlign=middle;spacingLeft=3;spacingRight=3;strokeColor=none;rotatable=0;points=[[0,0.5],[1,0.5]];portConstraint=eastwest;fontColor=#000000;" parent="XWk0Wrpyq3ewGpUUQk3z-97" vertex="1">
          <mxGeometry x="25.000000000000007" width="115.00000000000001" height="24.5" as="geometry" />
        </mxCell>
        <mxCell id="86" value="" style="html=1;fontColor=#000000;fillColor=#e3c800;strokeColor=#B09500;" parent="XWk0Wrpyq3ewGpUUQk3z-97" vertex="1">
          <mxGeometry y="24.5" width="25" height="24.5" as="geometry" />
        </mxCell>
        <mxCell id="87" value="" style="html=1;fontColor=#ffffff;fillColor=#CC00CC;strokeColor=#A50040;" parent="XWk0Wrpyq3ewGpUUQk3z-97" vertex="1">
          <mxGeometry y="49" width="25" height="24.5" as="geometry" />
        </mxCell>
        <mxCell id="89" value="Second priority" style="text;align=left;fontStyle=1;verticalAlign=middle;spacingLeft=3;spacingRight=3;strokeColor=none;rotatable=0;points=[[0,0.5],[1,0.5]];portConstraint=eastwest;fontColor=#000000;" parent="XWk0Wrpyq3ewGpUUQk3z-97" vertex="1">
          <mxGeometry x="25.000000000000007" y="24.5" width="115.00000000000001" height="24.5" as="geometry" />
        </mxCell>
        <mxCell id="90" value="Least priority" style="text;align=left;fontStyle=1;verticalAlign=middle;spacingLeft=3;spacingRight=3;strokeColor=none;rotatable=0;points=[[0,0.5],[1,0.5]];portConstraint=eastwest;fontColor=#000000;" parent="XWk0Wrpyq3ewGpUUQk3z-97" vertex="1">
          <mxGeometry x="25.000000000000007" y="49" width="115.00000000000001" height="24.5" as="geometry" />
        </mxCell>
        <mxCell id="XWk0Wrpyq3ewGpUUQk3z-100" value="" style="group" parent="1" vertex="1" connectable="0">
          <mxGeometry x="598" y="601.5" width="137" height="49" as="geometry" />
        </mxCell>
        <mxCell id="XWk0Wrpyq3ewGpUUQk3z-95" value="" style="html=1;fontColor=#ffffff;fillColor=#e51400;strokeColor=#B20000;" parent="XWk0Wrpyq3ewGpUUQk3z-100" vertex="1">
          <mxGeometry y="24.5" width="24.4642857142857" height="24.5" as="geometry" />
        </mxCell>
        <mxCell id="XWk0Wrpyq3ewGpUUQk3z-96" value="Scope 2nd semester" style="text;align=left;fontStyle=1;verticalAlign=middle;spacingLeft=3;spacingRight=3;strokeColor=none;rotatable=0;points=[[0,0.5],[1,0.5]];portConstraint=eastwest;fontColor=#000000;" parent="XWk0Wrpyq3ewGpUUQk3z-100" vertex="1">
          <mxGeometry x="24.464285714285747" y="24.5" width="112.53571428571425" height="24.5" as="geometry" />
        </mxCell>
        <mxCell id="XWk0Wrpyq3ewGpUUQk3z-98" value="" style="html=1;fontColor=#ffffff;fillColor=#60a917;strokeColor=#2D7600;" parent="XWk0Wrpyq3ewGpUUQk3z-100" vertex="1">
          <mxGeometry width="24.4642857142857" height="24.5" as="geometry" />
        </mxCell>
        <mxCell id="XWk0Wrpyq3ewGpUUQk3z-99" value="Scope 1st semester" style="text;align=left;fontStyle=1;verticalAlign=middle;spacingLeft=3;spacingRight=3;strokeColor=none;rotatable=0;points=[[0,0.5],[1,0.5]];portConstraint=eastwest;fontColor=#000000;" parent="XWk0Wrpyq3ewGpUUQk3z-100" vertex="1">
          <mxGeometry x="24.464285714285747" width="112.53571428571425" height="24.5" as="geometry" />
        </mxCell>
      </root>
    </mxGraphModel>
  </diagram>
</mxfile>
